<?xml version="1.0" standalone="no"?>
<!DOCTYPE svg PUBLIC "-//W3C//DTD SVG 20010904//EN"
 "http://www.w3.org/TR/2001/REC-SVG-20010904/DTD/svg10.dtd">
<svg version="1.0" xmlns="http://www.w3.org/2000/svg"
 width="1016.000000pt" height="1006.000000pt" viewBox="0 0 1016.000000 1006.000000"
 preserveAspectRatio="xMidYMid meet">

<g transform="translate(0.000000,1006.000000) scale(0.100000,-0.100000)"
fill="#134e4a" stroke="none">
<path d="M5390 7172 c-23 -11 -41 -31 -54 -59 -19 -40 -23 -42 -84 -54 -83
-17 -137 -55 -164 -117 -11 -26 -22 -48 -23 -50 -2 -2 -18 6 -36 17 -19 12
-40 21 -46 21 -26 0 -12 -31 24 -52 l37 -22 -49 -11 c-33 -6 -51 -16 -53 -27
-4 -21 16 -34 31 -19 6 6 21 11 34 11 21 0 22 -3 17 -44 -8 -52 8 -105 43
-146 15 -19 23 -40 22 -57 -7 -88 41 -143 126 -143 l53 0 16 -46 c25 -75 7
-243 -26 -232 -7 3 -15 19 -19 37 -9 44 -34 68 -80 76 -97 17 -209 -64 -209
-152 0 -26 -5 -43 -12 -43 -27 0 -116 -52 -149 -87 -53 -56 -75 -92 -88 -148
-7 -27 -22 -60 -33 -72 -13 -14 -21 -37 -22 -65 -1 -36 -13 -61 -75 -150 -54
-79 -80 -108 -95 -108 -32 -1 -56 -24 -56 -54 0 -15 -7 -34 -15 -42 -8 -9 -15
-25 -15 -36 0 -11 -15 -37 -33 -59 -48 -56 -89 -143 -95 -200 -4 -47 -2 -51
43 -104 58 -68 193 -178 260 -212 28 -14 57 -32 66 -40 9 -7 40 -26 68 -41 28
-15 84 -47 126 -72 l74 -45 -4 -68 c-4 -59 -9 -72 -30 -89 -26 -21 -35 -74
-15 -94 7 -7 6 -28 -4 -67 -15 -57 -12 -96 8 -98 11 -1 105 -1 117 0 4 1 21
14 38 30 28 26 30 27 27 7 -3 -11 -7 -86 -11 -166 -3 -80 -10 -194 -15 -255
-5 -60 -14 -198 -20 -305 -6 -107 -14 -256 -19 -330 -51 -762 -53 -800 -41
-815 7 -8 23 -15 36 -15 12 0 25 -3 27 -7 3 -5 0 -55 -5 -113 -9 -101 -12
-108 -55 -172 -25 -38 -52 -86 -59 -109 -42 -121 53 -195 248 -193 78 1 90 3
122 28 22 16 40 41 47 65 10 34 8 44 -17 102 -26 60 -28 74 -32 222 -2 115 0
163 9 174 11 12 14 12 21 -1 10 -18 53 -21 63 -5 4 6 15 65 25 132 18 123 56
360 86 537 9 52 22 138 30 190 7 52 18 122 24 155 6 33 19 123 30 200 11 77
31 212 45 300 15 88 31 197 37 243 6 45 14 82 17 82 3 0 6 -33 7 -73 1 -39 4
-133 8 -207 3 -74 8 -229 11 -345 3 -115 8 -275 12 -355 3 -80 7 -183 8 -230
8 -276 20 -570 24 -604 1 -4 12 -6 26 -4 l25 5 0 -117 c0 -97 -4 -126 -21
-164 -12 -28 -19 -62 -17 -84 2 -29 -2 -41 -20 -56 -40 -32 -14 -42 145 -55
82 -6 168 -13 193 -14 38 -2 45 -5 50 -27 12 -57 158 -94 273 -70 77 16 122
48 121 86 -1 16 -9 140 -18 276 l-17 248 33 29 33 29 2 119 c2 164 13 485 18
509 2 10 4 48 6 84 l2 65 8 -90 c5 -49 18 -196 30 -325 25 -290 33 -337 59
-360 18 -16 22 -36 30 -162 5 -78 8 -188 7 -243 -2 -143 1 -151 65 -161 29 -4
64 -9 78 -10 14 -2 104 -4 200 -4 194 0 259 12 300 55 21 22 22 28 10 49 -7
14 -29 31 -49 39 -43 18 -140 61 -196 88 -63 30 -101 69 -137 139 -30 59 -33
73 -31 143 1 62 6 83 23 104 16 21 21 39 19 83 -1 30 3 127 9 215 6 88 14 275
18 415 3 140 8 258 11 262 6 12 23 274 24 398 1 86 5 112 16 119 13 7 12 29
-9 172 -14 90 -27 170 -29 178 -2 8 7 17 24 22 38 10 226 151 227 169 0 8 14
64 32 123 26 91 36 111 58 122 18 9 31 28 39 57 7 24 17 52 21 63 4 11 14 40
21 64 12 41 12 44 -10 62 l-23 19 27 107 c15 60 31 117 36 128 27 68 51 167
42 176 -11 11 -77 -37 -203 -145 -41 -36 -80 -65 -86 -66 -6 0 -25 26 -43 58
-17 31 -60 98 -94 149 -34 50 -77 116 -96 147 -37 62 -96 111 -154 128 -28 8
-46 23 -63 50 -15 23 -32 38 -44 38 -17 0 -20 7 -20 43 0 38 4 46 40 74 22 17
55 50 72 74 38 53 47 38 17 -31 -12 -28 -19 -54 -15 -57 15 -16 42 17 64 78
21 58 22 60 19 24 -2 -22 -6 -47 -8 -55 -2 -9 4 -16 16 -17 16 -3 25 9 48 61
15 36 27 70 27 76 0 13 27 13 35 0 3 -5 13 -10 21 -10 16 0 16 1 -1 134 -8 57
-8 58 13 47 11 -6 41 -11 66 -11 39 0 46 3 46 20 0 18 -5 20 -37 15 -23 -3
-44 0 -54 7 -27 23 -69 92 -69 115 0 12 -5 25 -10 28 -6 4 -21 27 -34 53 -28
55 -83 115 -129 139 -18 10 -57 20 -87 23 l-55 5 3 63 c4 58 2 62 -18 62 -17
0 -21 -5 -20 -27 5 -67 2 -69 -36 -25 -19 23 -44 42 -55 42 -21 0 -26 -25 -6
-33 6 -2 22 -23 35 -46 l23 -41 -25 0 c-42 0 -124 -36 -173 -76 -53 -44 -93
-120 -93 -180 0 -31 -6 -46 -26 -65 -63 -57 -66 -130 -8 -198 32 -37 33 -40
14 -46 -33 -10 -23 -35 20 -52 22 -9 40 -23 40 -31 0 -9 10 -26 21 -39 22 -22
22 -23 3 -70 -10 -26 -17 -51 -16 -55 1 -5 -20 -8 -48 -8 -48 0 -57 -5 -83
-44 -12 -16 -19 -7 -75 92 -34 61 -62 113 -62 117 0 14 -102 132 -129 150 -17
11 -31 28 -31 37 0 24 -24 34 -116 54 -121 25 -139 34 -153 85 -6 24 -13 67
-14 94 -2 48 0 53 44 95 50 48 69 94 69 168 0 59 -20 185 -31 196 -16 18 -39
15 -39 -5 0 -10 4 -19 8 -19 5 0 9 -7 9 -15 0 -8 -4 -15 -9 -15 -4 0 -8 5 -8
10 0 6 -3 9 -7 8 -13 -3 -57 14 -74 28 -17 15 -15 58 3 81 6 7 4 13 -4 17 -7
3 -4 4 7 3 11 -1 25 -9 32 -17 11 -13 12 -13 13 3 0 15 2 16 14 5 12 -11 12
-14 0 -18 -12 -5 -12 -9 2 -25 13 -17 15 -17 10 -2 -8 24 3 22 12 -3 7 -19 9
-19 27 -5 18 13 18 17 5 28 -8 7 -27 36 -41 64 l-26 52 24 17 c23 14 25 21 19
62 -7 50 -29 82 -57 82 -10 0 -21 5 -24 10 -3 6 -20 10 -37 10 -19 0 -42 11
-65 30 -18 17 -40 30 -48 30 -7 0 -19 2 -27 5 -7 2 -29 -4 -48 -13z m240 -261
c14 -27 13 -31 -10 -31 -12 0 -31 -11 -44 -25 -13 -14 -28 -25 -35 -25 -6 0
-11 -9 -11 -20 0 -10 -8 -23 -17 -29 -10 -5 -15 -13 -11 -17 4 -4 14 -1 23 6
17 15 17 15 33 -24 15 -34 14 -36 -13 -25 -11 4 -15 8 -8 8 7 1 10 7 7 15 -3
8 -12 12 -19 10 -10 -4 -11 -12 -3 -35 9 -25 6 -32 -18 -58 -28 -31 -90 -42
-80 -15 3 7 -2 15 -10 18 -9 3 -12 11 -9 16 4 6 2 16 -3 23 -15 19 5 72 33 87
14 7 25 17 25 22 0 5 5 6 10 3 6 -4 8 -9 6 -13 -2 -4 7 -8 20 -8 l24 -2 -23
19 c-28 21 -68 22 -64 0 1 -7 -4 -16 -11 -18 -8 -3 -10 1 -6 14 6 17 6 17 -10
2 -10 -9 -18 -22 -20 -30 -9 -51 -19 -79 -28 -79 -6 0 -7 -7 -4 -16 5 -14 4
-15 -7 -5 -11 9 -17 8 -27 -4 -18 -22 -33 -18 -27 8 18 70 32 93 68 110 21 10
39 25 41 34 2 10 16 16 41 18 22 1 47 11 60 23 13 12 29 22 35 22 7 0 17 9 24
20 16 25 54 26 68 1z m-53 -113 c-3 -8 -6 -5 -6 6 -1 11 2 17 5 13 3 -3 4 -12
1 -19z m-191 -103 c-7 -20 4 -46 17 -38 5 3 7 1 4 -4 -4 -6 2 -18 13 -28 24
-22 17 -35 -19 -35 -56 0 -89 12 -95 34 -5 18 -8 19 -17 6 -9 -13 -10 -13 -6
0 2 8 12 14 21 14 9 -1 16 3 16 9 0 6 3 7 6 4 4 -3 15 -2 26 4 11 6 17 13 14
16 -3 4 -1 12 5 20 15 17 23 17 15 -2z m293 -24 c17 -16 31 -33 31 -38 0 -5
-22 -17 -49 -27 -58 -21 -141 -71 -141 -86 0 -17 24 -12 86 19 76 37 108 47
102 31 -2 -7 -28 -22 -58 -35 -55 -23 -81 -47 -67 -61 4 -4 28 2 52 14 25 12
50 22 55 22 23 0 7 -36 -34 -76 -43 -43 -45 -44 -111 -44 -42 0 -80 6 -102 17
-36 17 -73 65 -73 94 0 14 45 44 135 91 37 19 57 42 28 31 -10 -4 1 12 25 35
50 50 78 53 121 13z m-450 -101 c35 -42 74 -53 85 -25 3 8 12 15 21 15 18 0
19 -4 3 -30 -10 -15 -10 -27 -1 -50 10 -28 10 -30 -12 -30 -12 0 -28 7 -35 15
-11 13 -16 13 -42 -1 -41 -21 -85 -10 -109 29 -32 51 -9 117 40 117 9 0 31
-18 50 -40z m1559 -89 c61 -32 116 -103 147 -192 17 -47 47 -230 40 -238 -3
-2 -5 1 -5 7 0 6 -11 22 -24 35 -13 13 -32 50 -42 81 -13 41 -22 56 -33 53 -9
-2 -15 -7 -14 -13 1 -5 4 -27 8 -49 l6 -40 -31 35 c-35 39 -75 119 -96 190
-14 47 -39 69 -57 51 -9 -9 -6 -62 7 -111 l7 -25 -15 25 c-8 14 -15 44 -16 68
0 64 -37 56 -60 -12 -16 -49 -90 -125 -130 -132 -16 -4 -30 -13 -30 -20 0 -22
-15 -16 -30 11 -12 22 -11 30 8 64 26 45 28 61 8 61 -8 0 -25 -18 -37 -40 -12
-22 -24 -38 -27 -36 -7 7 38 100 60 124 17 17 19 25 10 34 -16 16 -45 -12 -78
-76 -24 -47 -26 -49 -20 -16 18 98 195 212 264 169 16 -10 24 -9 43 5 29 20
82 15 137 -13z m-1369 -102 c13 -11 34 -19 47 -19 15 0 24 -6 24 -16 0 -14 8
-15 54 -10 l53 7 6 -70 c3 -38 13 -83 22 -100 14 -28 14 -33 -1 -56 -9 -14
-27 -28 -39 -31 -27 -7 -55 -35 -71 -72 l-12 -27 -13 32 c-11 26 -21 34 -49
39 -40 6 -109 33 -127 48 -10 9 -9 20 2 53 17 50 23 162 12 216 l-8 38 38 -7
c21 -4 49 -15 62 -25z m1239 -111 c10 -18 31 -39 47 -48 42 -21 42 -20 23 -31
-10 -5 -22 -27 -28 -49 -11 -42 -17 -45 -103 -55 -54 -6 -59 -5 -87 24 -38 38
-38 57 3 77 41 21 117 94 117 113 0 19 8 10 28 -31z m-283 -80 c26 -12 27 -14
30 -63 0 -17 4 -35 7 -40 8 -15 -3 -85 -13 -85 -5 0 -9 9 -9 19 0 26 -16 35
-37 21 -16 -10 -16 -11 2 -5 16 5 18 4 8 -6 -20 -20 -65 1 -87 42 -22 40 -18
73 14 107 23 25 47 28 85 10z m443 -53 c34 -47 38 -65 21 -97 -11 -20 -11 -20
-39 7 -26 25 -28 29 -14 50 8 12 11 25 7 28 -12 13 -42 7 -52 -10 -9 -16 -10
-16 -11 4 0 12 5 25 10 28 6 3 10 14 10 25 0 30 31 13 68 -35z m-1643 5 c22
-24 23 -23 -38 -38 -72 -18 -87 -16 -87 13 0 45 91 62 125 25z m-174 -41 c-5
-13 -10 -19 -10 -12 -1 15 10 45 15 40 3 -2 0 -15 -5 -28z m708 11 c15 -8 17
-16 11 -57 -5 -26 -11 -109 -15 -183 -4 -74 -11 -140 -17 -147 -6 -8 -21 -10
-37 -7 -20 4 -23 3 -11 -5 12 -9 7 -11 -20 -10 -50 2 -200 -23 -194 -32 2 -4
0 -10 -6 -14 -5 -3 -10 -1 -10 4 0 6 -18 11 -41 11 -22 0 -38 -4 -35 -9 4 -5
-10 -5 -31 -1 -20 5 -42 8 -47 7 -6 -1 -9 5 -8 13 8 34 20 360 15 381 -7 26
-2 25 92 -15 33 -14 67 -26 76 -26 8 0 25 -20 37 -45 21 -43 21 -48 7 -82 -17
-39 -20 -83 -6 -83 14 0 26 22 44 82 28 92 57 148 80 158 12 4 35 22 51 39 32
34 38 36 65 21z m1206 -39 c14 -32 16 -48 8 -73 -10 -32 -10 -31 -18 30 -4 34
-12 65 -16 68 -5 3 -9 10 -9 15 0 19 17 0 35 -40z m-304 -20 l98 12 41 -27
c23 -15 43 -33 46 -41 12 -31 -75 -134 -131 -155 -30 -11 -105 -5 -105 10 0 4
-18 20 -40 35 -21 15 -46 37 -54 50 -21 32 -29 82 -16 105 9 16 15 18 37 9 18
-7 57 -6 124 2z m-1580 -48 c0 -16 0 -117 0 -225 l1 -197 -34 -48 c-43 -61
-130 -166 -184 -221 -23 -24 -55 -63 -71 -85 -15 -23 -34 -46 -40 -50 -7 -4
-13 -15 -13 -22 0 -25 -16 -17 -73 38 -36 35 -75 62 -113 77 -74 29 -81 35
-54 50 17 9 20 17 15 41 -7 29 -2 33 36 30 17 -2 100 114 200 279 135 224 166
264 256 325 60 41 73 42 74 8z m1069 -233 c36 -68 66 -128 68 -134 1 -6 -25
-19 -58 -30 -33 -10 -71 -26 -83 -36 -12 -9 -32 -20 -43 -24 -12 -4 -27 -20
-34 -36 -16 -38 -30 -38 -30 0 0 17 4 30 8 30 5 0 19 22 32 50 18 39 21 52 11
64 -8 10 -10 33 -5 75 6 53 4 61 -10 61 -9 0 -16 -4 -16 -10 0 -5 -7 -7 -15
-4 -17 7 -20 85 -8 184 l6 54 56 -61 c35 -38 80 -107 121 -183z m267 214 c6
-30 11 -91 6 -69 -3 11 -11 27 -18 35 -9 10 -11 21 -5 30 6 9 5 18 -3 23 -9 6
-8 7 2 5 8 -2 16 -13 18 -24z m103 -113 c37 -48 81 -71 134 -71 l36 0 -1 -50
c-1 -28 1 -53 4 -56 3 -3 -6 -17 -19 -31 -14 -15 -23 -32 -20 -40 3 -7 0 -15
-6 -19 -7 -5 -8 -2 -3 6 5 9 4 11 -4 6 -6 -4 -9 -12 -6 -17 4 -5 -1 -12 -9
-15 -9 -3 -14 -10 -11 -14 3 -4 -2 -11 -11 -14 -10 -4 -14 -12 -9 -24 4 -12 0
-11 -15 6 -12 12 -25 20 -30 17 -4 -3 -11 3 -14 12 -6 15 -8 15 -16 3 -9 -13
-10 -13 -11 0 -1 8 -1 19 0 24 1 5 -5 6 -12 3 -10 -4 -13 0 -10 11 2 10 -9 29
-26 46 -36 35 -37 44 -11 114 11 30 20 76 20 109 0 31 4 53 8 48 5 -6 24 -30
42 -54z m-650 -21 c0 -5 -4 -10 -10 -10 -5 0 -10 5 -10 10 0 6 5 10 10 10 6 0
10 -4 10 -10z m-34 -12 c4 -7 3 -8 -4 -4 -7 4 -12 2 -12 -5 0 -7 -3 -10 -6 -6
-6 5 3 27 11 27 2 0 7 -5 11 -12z m-671 -28 c3 -6 -4 -10 -17 -10 -18 0 -20 2
-8 10 19 12 18 12 25 0z m494 -136 c2 -2 -7 -4 -22 -4 -14 0 -29 5 -32 10 -6
10 42 4 54 -6z m701 12 c0 -3 -4 -8 -10 -11 -5 -3 -10 -1 -10 4 0 6 5 11 10
11 6 0 10 -2 10 -4z m69 -37 c-6 -3 19 -33 55 -67 36 -33 68 -72 72 -86 7 -29
24 -35 24 -8 0 14 2 15 10 2 5 -9 5 -19 -2 -27 -7 -9 -7 -13 0 -13 12 0 22 24
22 51 0 11 12 38 28 62 15 23 32 55 38 71 8 24 12 26 17 13 3 -9 2 -17 -3 -17
-5 0 -7 -6 -4 -13 4 -12 -80 -197 -91 -197 -3 0 -50 46 -104 103 -55 56 -102
105 -106 109 -4 3 -4 15 -1 26 6 17 10 18 31 9 13 -7 19 -14 14 -18z m-679 11
c0 -5 -5 -10 -11 -10 -5 0 -7 5 -4 10 3 6 8 10 11 10 2 0 4 -4 4 -10z m708
-22 c-2 -7 3 -12 10 -10 8 1 11 -2 7 -8 -5 -8 -11 -8 -21 1 -7 6 -11 15 -8 20
8 13 14 11 12 -3z m-234 -65 c2 -10 10 -52 16 -93 20 -128 18 -123 48 -117 15
2 34 7 44 11 28 12 37 -44 45 -261 l5 -152 -44 -28 c-24 -15 -61 -45 -81 -65
-21 -21 -41 -38 -46 -38 -4 0 -15 33 -24 73 -26 109 -74 251 -86 255 -17 6
-23 -22 -11 -53 12 -31 6 -45 -12 -27 -16 16 -28 15 -28 -3 0 -11 32 -39 57
-50 7 -3 -61 -211 -71 -217 -6 -4 -11 -25 -12 -48 0 -48 -20 -74 -35 -47 -6 9
-19 17 -30 17 -25 0 -129 -48 -129 -60 0 -17 22 -22 43 -12 44 22 100 42 105
38 2 -3 -21 -21 -52 -41 -38 -24 -56 -42 -56 -56 0 -22 1 -22 67 23 46 31 62
36 43 13 -19 -23 -16 -177 5 -208 16 -25 16 -25 -51 -62 -79 -45 -106 -47
-144 -10 -39 38 -54 99 -46 190 10 113 47 285 66 310 4 6 10 24 14 40 31 148
161 523 205 593 14 23 60 51 136 84 51 22 53 22 59 1z m695 -29 c28 -25 67
-76 88 -112 20 -37 55 -92 78 -122 22 -30 44 -62 48 -70 4 -8 23 -40 42 -70
19 -30 33 -55 32 -55 -1 -1 -69 4 -152 10 l-149 10 -3 47 c-3 38 2 56 27 94
16 27 30 54 30 61 0 24 -30 13 -42 -14 -12 -28 -12 -28 -16 15 -2 33 -7 42
-22 42 -18 0 -19 -7 -13 -121 6 -115 5 -121 -13 -117 -22 4 -45 47 -49 92 -2
18 -11 64 -20 102 -9 38 -18 77 -20 87 -3 15 5 17 54 17 32 0 60 3 64 6 3 3
-8 35 -24 71 -16 36 -29 67 -29 69 0 2 9 4 19 4 10 0 42 -21 70 -46z m-139 26
c0 -5 -4 -10 -10 -10 -5 0 -10 5 -10 10 0 6 5 10 10 10 6 0 10 -4 10 -10z m4
-35 c-4 -8 -8 -15 -10 -15 -2 0 -4 7 -4 15 0 8 4 15 10 15 5 0 7 -7 4 -15z
m-359 -15 c10 -11 14 -20 9 -20 -5 0 -15 9 -22 20 -7 11 -11 20 -9 20 2 0 12
-9 22 -20z m-661 -38 c9 -68 36 -190 53 -239 12 -35 19 -43 39 -43 29 0 29 3
3 -57 -20 -48 -34 -92 -70 -233 -28 -109 -51 -169 -67 -175 -8 -3 -150 -5
-316 -6 l-301 0 3 26 c2 14 -2 33 -7 43 -8 13 -4 21 15 37 21 17 29 41 51 153
23 120 28 134 53 148 23 14 29 28 43 104 9 47 17 110 17 139 0 46 3 53 26 61
14 6 37 10 50 10 14 0 23 3 21 8 -3 4 9 7 26 8 18 0 66 8 107 18 41 9 85 17
98 17 13 -1 20 3 17 9 -4 7 3 8 21 4 15 -4 25 -3 22 2 -3 5 16 10 42 11 l47 3
7 -48z m-197 32 c-3 -3 -12 -4 -19 -1 -8 3 -5 6 6 6 11 1 17 -2 13 -5z m908
-42 c-3 -3 -11 0 -18 7 -9 10 -8 11 6 5 10 -3 15 -9 12 -12z m-1135 -1 c0 -5
-9 -11 -20 -14 -11 -3 -20 -1 -20 3 0 5 8 11 18 13 9 3 18 5 20 6 1 0 2 -3 2
-8z m-276 -23 c-3 -5 -10 -6 -15 -3 -5 4 -9 1 -9 -6 0 -7 -3 -10 -6 -6 -9 9 3
24 20 24 8 0 13 -4 10 -9z m1290 -9 c-29 -12 -36 -10 -22 5 7 7 19 11 27 8 11
-4 10 -7 -5 -13z m177 -26 c13 -16 12 -17 -3 -4 -10 7 -18 15 -18 17 0 8 8 3
21 -13z m-1466 -75 c-3 -46 -8 -104 -11 -131 -4 -38 -1 -49 12 -54 14 -5 15
-15 10 -65 -4 -33 -11 -69 -15 -81 -8 -21 -8 -21 -14 -2 -4 11 -8 47 -11 80
-3 33 -8 87 -11 120 -17 171 -12 215 26 215 18 0 19 -5 14 -82z m1352 -30 c-3
-8 -6 -5 -6 6 -1 11 2 17 5 13 3 -3 4 -12 1 -19z m123 2 c0 -5 -2 -10 -4 -10
-3 0 -8 5 -11 10 -3 6 -1 10 4 10 6 0 11 -4 11 -10z m127 -12 c-3 -8 -6 -5 -6
6 -1 11 2 17 5 13 3 -3 4 -12 1 -19z m70 0 c-3 -8 -6 -5 -6 6 -1 11 2 17 5 13
3 -3 4 -12 1 -19z m727 -88 c-15 -48 -22 -59 -36 -54 -18 5 -136 -57 -150 -80
-4 -6 -8 -36 -8 -67 0 -43 -4 -58 -16 -63 -25 -9 -27 -3 -18 56 5 29 8 61 6
70 -1 11 20 34 56 60 31 23 84 66 116 95 33 29 62 51 64 48 3 -3 -3 -32 -14
-65z m-789 -19 c170 -84 196 -92 315 -96 41 -1 108 -6 148 -10 69 -7 72 -8 72
-34 0 -14 -5 -46 -11 -70 -8 -35 -7 -45 5 -55 14 -10 14 -15 -1 -45 -12 -24
-14 -38 -6 -50 7 -11 7 -21 -1 -34 -9 -15 -7 -22 10 -36 12 -10 24 -26 26 -37
2 -12 18 -24 43 -32 21 -7 40 -14 42 -15 1 -2 -4 -23 -12 -47 l-14 -45 0 48
c-1 47 -1 47 -28 41 -40 -9 -41 -11 -58 -99 -21 -110 -20 -134 6 -144 20 -7
20 -9 -17 -39 -39 -33 -54 -39 -54 -23 0 5 14 77 30 161 17 84 30 154 30 156
0 2 -8 4 -18 4 -14 0 -21 -19 -36 -101 -11 -56 -25 -124 -32 -153 l-13 -51 6
76 c5 71 4 77 -14 83 -31 10 -124 4 -129 -8 -2 -6 -8 -49 -12 -95 -6 -62 -5
-86 4 -96 14 -14 109 -29 124 -20 6 3 10 2 10 -4 0 -23 -47 -31 -216 -38
l-177 -6 7 49 c20 144 74 414 123 611 32 133 35 172 12 158 -5 -3 -15 -27 -23
-53 -8 -26 -15 -40 -15 -32 -1 17 -77 55 -103 51 -9 -1 -23 7 -30 18 -7 12
-18 21 -25 21 -7 0 -13 7 -13 15 0 9 -8 19 -17 22 -10 4 -29 15 -42 25 -31 23
-61 24 -61 0 0 -10 -7 -27 -15 -38 -16 -22 -20 -54 -5 -54 5 0 19 14 32 30 26
36 45 40 22 5 -17 -26 -11 -50 11 -41 9 3 16 -6 20 -25 4 -16 13 -29 20 -29 7
0 15 -6 18 -12 3 -10 7 -10 20 1 15 12 17 11 17 -3 0 -9 6 -16 13 -16 21 0 77
-30 77 -41 0 -5 9 -9 20 -9 21 0 24 -17 11 -75 -5 -24 -8 -26 -13 -12 -4 9
-12 17 -17 17 -11 0 -13 -9 -52 -177 -19 -82 -28 -103 -41 -103 -10 0 -18 -7
-18 -15 0 -17 47 -32 60 -19 5 5 20 67 35 139 24 118 35 157 35 127 0 -6 -13
-78 -30 -159 -16 -81 -35 -175 -41 -208 -6 -33 -17 -84 -25 -112 -14 -52 -15
-53 -52 -53 -20 0 -77 7 -127 16 -49 8 -108 18 -130 21 -56 8 -65 17 -54 56 5
18 16 64 24 104 20 103 59 173 96 173 10 0 20 -8 23 -17 6 -17 80 -49 139 -60
19 -4 27 -1 27 10 0 8 -25 24 -62 38 -57 21 -60 24 -33 27 41 5 67 30 63 61
-2 18 6 34 27 54 l30 29 -35 -7 c-19 -4 -71 -10 -114 -14 -116 -9 -112 -40 7
-56 45 -6 61 -18 35 -27 -7 -3 -42 -6 -78 -7 -59 -2 -68 -6 -97 -36 -18 -18
-42 -37 -54 -40 -11 -4 -78 -47 -147 -96 l-127 -89 -13 38 c-17 45 -10 154 12
197 10 21 43 47 98 80 46 26 110 70 143 95 90 71 156 110 184 110 15 0 53 -9
86 -20 l60 -19 -80 2 c-65 2 -80 -1 -80 -13 0 -12 21 -17 93 -24 66 -7 92 -13
92 -23 0 -16 -78 -18 -128 -4 -37 11 -62 5 -62 -14 0 -18 14 -21 111 -24 97
-3 105 2 111 64 2 22 7 45 10 51 12 19 0 28 -121 90 -35 18 -68 31 -73 28 -4
-3 -8 -16 -8 -30 0 -13 -4 -24 -10 -24 -14 0 -14 0 20 146 16 71 30 132 30
137 0 13 14 8 175 -72z m-2107 33 c86 -51 138 -112 82 -97 -42 11 -18 -26 58
-88 221 -181 386 -341 409 -397 22 -52 28 -176 13 -274 -12 -81 -35 -156 -45
-146 -3 3 1 21 9 40 9 20 12 38 9 42 -15 15 -29 3 -46 -37 -9 -24 -31 -59 -47
-78 -33 -38 -30 -23 13 58 30 57 34 83 14 83 -7 0 -33 -38 -56 -85 -24 -47
-47 -85 -51 -85 -13 0 8 74 40 144 25 54 29 70 19 82 -15 18 -7 141 12 171 17
29 5 40 -25 24 -21 -12 -30 -10 -72 15 -287 165 -445 273 -514 351 -31 36 -40
54 -40 83 0 43 44 137 91 193 36 44 53 44 127 1z m2196 -10 c3 -8 2 -12 -4 -9
-6 3 -10 10 -10 16 0 14 7 11 14 -7z m-1924 -159 c1 -33 1 -64 1 -68 -2 -16
-141 98 -141 115 0 5 9 4 19 -2 34 -17 51 -12 51 16 0 14 12 39 28 55 l27 29
6 -42 c4 -24 8 -70 9 -103z m2597 63 c-3 -8 -6 -5 -6 6 -1 11 2 17 5 13 3 -3
4 -12 1 -19z m-51 -40 c-11 -70 -16 -78 -53 -78 -28 0 -34 3 -29 16 3 9 6 23
6 33 0 13 60 59 78 61 2 0 1 -15 -2 -32z m41 0 c-3 -8 -6 -5 -6 6 -1 11 2 17
5 13 3 -3 4 -12 1 -19z m-2310 -10 c-3 -8 -6 -5 -6 6 -1 11 2 17 5 13 3 -3 4
-12 1 -19z m2283 -97 c-8 -16 -20 -21 -55 -21 -54 0 -67 14 -17 18 20 1 45 9
57 16 25 17 30 14 15 -13z m-861 3 c2 -2 2 -6 0 -9 -8 -7 -49 7 -49 17 0 8 38
2 49 -8z m256 -15 c-6 -16 -9 -18 -16 -8 -4 8 -3 19 3 26 15 18 21 9 13 -18z
m-641 -69 c9 -41 16 -78 16 -82 0 -6 -84 -58 -94 -58 -3 0 -6 6 -6 13 0 18 61
210 65 205 2 -2 11 -37 19 -78z m1239 19 c36 -10 38 -12 32 -42 -10 -48 -29
-63 -60 -49 -14 7 -38 12 -53 12 -15 0 -37 3 -49 6 -20 6 -21 8 -7 21 15 15
37 14 133 -9 8 -1 16 4 18 14 3 12 -8 19 -47 27 -28 6 -62 11 -75 11 -14 0
-25 5 -25 10 0 13 85 13 133 -1z m0 -141 c5 -16 -10 -48 -23 -48 -5 0 -7 6 -4
14 4 11 -5 17 -33 22 -69 12 -72 23 -6 24 40 0 63 -4 66 -12z m-53 -46 c0 -4
-16 -6 -35 -4 -19 2 -35 6 -35 8 0 2 16 4 35 4 19 0 35 -4 35 -8z m-2033 -33
c7 -7 8 -17 3 -28 -12 -20 -35 -102 -33 -118 0 -7 -4 -11 -10 -10 -6 1 -12 -4
-13 -10 -1 -7 -2 -17 -3 -23 0 -5 -9 -6 -18 -3 -13 5 -15 2 -10 -11 4 -9 3
-15 -2 -11 -5 3 -12 1 -16 -5 -11 -17 -25 -11 -25 11 0 11 11 35 24 52 35 49
42 61 25 53 -8 -4 -5 0 5 8 13 11 21 30 22 59 1 23 2 43 3 45 3 7 39 0 48 -9z
m403 -9 c0 -5 -5 -10 -11 -10 -5 0 -7 5 -4 10 3 6 8 10 11 10 2 0 4 -4 4 -10z
m-48 -12 c-6 -6 -22 -13 -34 -15 -18 -2 -19 -1 -8 6 8 5 17 8 21 5 4 -2 10 0
14 6 3 5 9 10 13 10 3 0 1 -5 -6 -12z m1583 -132 c-4 -36 -12 -66 -17 -66 -6
0 -8 10 -4 23 4 12 9 43 13 70 9 72 16 48 8 -27z m42 22 c-3 -8 -6 -5 -6 6 -1
11 2 17 5 13 3 -3 4 -12 1 -19z m-2089 -7 c-7 -9 -14 -18 -15 -20 -2 -2 -3 5
-3 16 0 11 7 20 15 20 12 0 12 -3 3 -16z m1112 12 c0 -5 -12 -58 -26 -119 -15
-61 -25 -118 -21 -127 4 -10 23 -19 47 -23 38 -6 40 -8 40 -43 0 -20 -5 -67
-11 -106 -6 -38 -11 -127 -10 -196 l0 -126 -51 -17 c-30 -9 -84 -16 -134 -16
l-83 0 -7 36 c-10 53 12 252 49 454 l32 175 50 33 c28 18 64 44 80 57 31 25
45 31 45 18z m752 -48 c11 -4 11 -20 4 -80 -10 -79 -13 -82 -64 -69 -22 6 -23
10 -16 58 4 28 8 60 10 71 1 11 3 21 3 23 2 4 49 2 63 -3z m-1832 -65 c0 -5
-4 -10 -10 -10 -5 0 -10 5 -10 10 0 6 5 10 10 10 6 0 10 -4 10 -10z m-40 -45
l-8 -40 -1 36 c0 20 2 39 6 42 11 11 11 4 3 -38z m37 -27 c-3 -7 -5 -2 -5 12
0 14 2 19 5 13 2 -7 2 -19 0 -25z m450 -10 c-3 -8 -6 -5 -6 6 -1 11 2 17 5 13
3 -3 4 -12 1 -19z m43 -38 c0 -11 -4 -20 -9 -20 -5 0 -7 9 -4 20 3 11 7 20 9
20 2 0 4 -9 4 -20z m-788 -12 c-7 -7 -12 -8 -12 -2 0 6 3 14 7 17 3 4 9 5 12
2 2 -3 -1 -11 -7 -17z m1003 -18 c-3 -5 -14 -10 -23 -9 -14 0 -13 2 3 9 27 11
27 11 20 0z m-35 -36 c0 -2 -12 -4 -26 -4 -14 0 -23 4 -20 9 6 8 46 4 46 -5z
m1109 -66 c12 -53 27 -152 38 -238 l5 -46 -66 -13 c-37 -7 -69 -11 -72 -9 -5
6 -20 88 -34 183 -24 173 -24 163 -4 168 11 3 42 5 70 6 l51 1 12 -52z m-1374
22 c3 -5 2 -10 -4 -10 -5 0 -13 5 -16 10 -3 6 -2 10 4 10 5 0 13 -4 16 -10z
m93 -21 c-3 -8 -7 -3 -11 10 -4 17 -3 21 5 13 5 -5 8 -16 6 -23z m-591 -21
c-3 -8 -6 -5 -6 6 -1 11 2 17 5 13 3 -3 4 -12 1 -19z m870 -40 c-3 -8 -6 -5
-6 6 -1 11 2 17 5 13 3 -3 4 -12 1 -19z m-410 -240 c-3 -8 -6 -5 -6 6 -1 11 2
17 5 13 3 -3 4 -12 1 -19z m-480 -130 c-3 -7 -5 -2 -5 12 0 14 2 19 5 13 2 -7
2 -19 0 -25z m20 0 c-3 -7 -5 -2 -5 12 0 14 2 19 5 13 2 -7 2 -19 0 -25z m20
-60 c-3 -7 -5 -2 -5 12 0 14 2 19 5 13 2 -7 2 -19 0 -25z m107 -9 c-5 -9 1
-10 20 -5 61 15 114 18 121 7 9 -15 -14 -43 -29 -34 -6 3 -3 -3 8 -15 18 -21
18 -21 -15 -31 -19 -5 -27 -10 -19 -10 20 -2 -29 -30 -52 -31 -22 0 -32 18
-19 34 6 7 7 17 3 21 -4 5 1 6 10 2 9 -3 19 0 22 8 4 11 0 12 -19 5 -44 -17
-60 5 -46 58 1 1 6 2 12 2 5 0 7 -5 3 -11z m-74 -49 c12 -8 11 -10 -7 -10 -13
0 -23 5 -23 10 0 13 11 13 30 0z m5 -40 c-3 -5 -11 -10 -16 -10 -6 0 -7 5 -4
10 3 6 11 10 16 10 6 0 7 -4 4 -10z m50 0 c-16 -7 -17 -9 -3 -9 26 -1 33 -22
13 -37 -21 -15 -55 -2 -55 21 0 16 27 35 50 34 10 0 8 -3 -5 -9z m-118 -57
c-3 -10 -5 -4 -5 12 0 17 2 24 5 18 2 -7 2 -21 0 -30z m63 16 c0 -11 -4 -18
-10 -14 -5 3 -7 12 -3 20 7 21 13 19 13 -6z m131 -28 c6 -14 5 -20 -1 -16 -6
3 -10 2 -10 -4 0 -6 -11 -6 -29 -1 -16 4 -31 7 -33 7 -2 -1 7 8 20 21 28 27
42 25 53 -7z m-224 -23 c-3 -7 -5 -2 -5 12 0 14 2 19 5 13 2 -7 2 -19 0 -25z
m410 0 c-3 -8 -6 -5 -6 6 -1 11 2 17 5 13 3 -3 4 -12 1 -19z m263 -124 c0 -8
-4 -12 -10 -9 -5 3 -10 13 -10 21 0 8 5 12 10 9 6 -3 10 -13 10 -21z m330 -15
c0 -11 -4 -18 -10 -14 -5 3 -7 12 -3 20 7 21 13 19 13 -6z m-343 -151 c-3 -8
-6 -5 -6 6 -1 11 2 17 5 13 3 -3 4 -12 1 -19z m225 -38 c44 0 48 -2 48 -23 0
-21 -4 -23 -32 -20 -33 3 -33 3 -6 -8 16 -6 26 -17 25 -28 -1 -14 -10 -17 -50
-17 -27 1 -51 -2 -53 -6 -3 -4 28 -8 69 -8 58 0 76 -3 81 -15 3 -10 -1 -19
-12 -23 -9 -4 -17 -16 -18 -28 0 -16 5 -20 20 -17 19 4 19 3 4 -7 -13 -8 -23
-8 -38 0 -13 7 -20 7 -20 0 0 -5 -4 -10 -8 -10 -5 0 -7 14 -4 30 4 29 3 30
-34 30 -58 0 -66 9 -47 49 9 18 26 37 37 41 16 7 17 9 4 9 -9 1 -23 14 -31 30
-15 31 -11 49 7 31 5 -5 32 -10 58 -10z m5 14 c-3 -3 -12 -4 -19 -1 -8 3 -5 6
6 6 11 1 17 -2 13 -5z m76 -41 c-3 -7 -8 -13 -12 -13 -4 0 -8 6 -8 13 0 8 6
14 13 14 7 0 10 -6 7 -14z m26 -39 c15 10 25 -14 12 -27 -9 -9 -10 -8 -5 7 7
18 6 18 -19 1 -27 -17 -47 -13 -47 10 0 17 22 25 37 13 7 -5 17 -7 22 -4z
m-616 -54 c-3 -11 -7 -20 -9 -20 -2 0 -4 9 -4 20 0 11 4 20 9 20 5 0 7 -9 4
-20z m-406 -52 c-3 -8 -6 -5 -6 6 -1 11 2 17 5 13 3 -3 4 -12 1 -19z m858 2
c-3 -5 -12 -10 -18 -10 -7 0 -6 4 3 10 19 12 23 12 15 0z m-465 -52 c0 -38 -5
-34 -13 10 -4 21 -3 31 3 27 6 -3 10 -20 10 -37z m307 10 c-3 -7 -5 -2 -5 12
0 14 2 19 5 13 2 -7 2 -19 0 -25z m288 -18 c17 -7 14 -9 -13 -9 -20 -1 -31 3
-27 9 7 12 13 12 40 0z m72 -22 c-3 -8 -6 -5 -6 6 -1 11 2 17 5 13 3 -3 4 -12
1 -19z m-320 -30 c-3 -8 -6 -5 -6 6 -1 11 2 17 5 13 3 -3 4 -12 1 -19z m-380
-80 c-3 -8 -6 -5 -6 6 -1 11 2 17 5 13 3 -3 4 -12 1 -19z m380 -55 c-2 -16 -4
-3 -4 27 0 30 2 43 4 28 2 -16 2 -40 0 -55z m-390 -25 c-3 -8 -6 -5 -6 6 -1
11 2 17 5 13 3 -3 4 -12 1 -19z m-70 -170 c-3 -8 -6 -5 -6 6 -1 11 2 17 5 13
3 -3 4 -12 1 -19z m-310 -50 c-3 -8 -6 -5 -6 6 -1 11 2 17 5 13 3 -3 4 -12 1
-19z m1920 -55 c-2 -58 -2 -58 -47 -81 -38 -19 -56 -22 -116 -18 -89 7 -104
13 -104 41 0 20 6 23 54 28 60 6 151 41 181 69 30 28 34 23 32 -39z m-1580
-25 c-3 -8 -6 -5 -6 6 -1 11 2 17 5 13 3 -3 4 -12 1 -19z m953 -37 c56 -13
140 -11 173 3 26 12 22 -30 -6 -58 -28 -28 -115 -50 -163 -41 -19 3 -53 22
-75 42 -31 28 -39 42 -39 70 l0 34 28 -19 c15 -10 52 -24 82 -31z m-180 19 c0
-5 -5 -10 -11 -10 -5 0 -7 5 -4 10 3 6 8 10 11 10 2 0 4 -4 4 -10z m-334 -12
c5 -7 2 -8 -7 -3 -9 5 -11 5 -4 -2 21 -22 78 -32 170 -29 53 1 99 6 103 12 4
5 22 11 40 12 29 3 32 1 32 -22 0 -14 -5 -26 -11 -26 -5 0 -7 5 -3 11 3 6 -9
3 -27 -7 -19 -10 -37 -17 -41 -16 -5 1 -8 -1 -8 -6 0 -4 -49 -6 -110 -4 -83 2
-110 6 -110 17 0 17 -27 27 -36 13 -4 -6 -12 -1 -20 13 -17 33 13 69 32 37z
m-761 -8 c3 -5 -1 -10 -9 -10 -9 0 -16 5 -16 10 0 6 4 10 9 10 6 0 13 -4 16
-10z m8 -23 c4 3 7 1 7 -6 0 -7 8 -11 18 -10 9 1 25 -2 36 -6 12 -5 21 -3 27
6 5 9 9 10 9 2 0 -6 14 -14 30 -18 37 -8 160 4 160 16 0 5 -7 6 -15 3 -8 -4
-15 -1 -15 5 0 24 40 11 46 -15 8 -32 -9 -52 -30 -35 -11 10 -19 9 -35 -1 -12
-7 -21 -16 -21 -20 0 -4 -13 -5 -30 -1 -19 3 -30 1 -30 -6 0 -6 -8 -11 -17
-11 -15 0 -16 2 -3 10 11 7 2 9 -32 7 -26 -2 -45 0 -42 5 5 7 -36 13 -60 9 -4
-1 -14 6 -22 16 -12 17 -13 16 -14 -9 0 -51 -15 -28 -17 27 l-2 55 23 -15 c12
-8 26 -12 29 -8z m137 -7 c0 -5 -2 -10 -4 -10 -3 0 -8 5 -11 10 -3 6 -1 10 4
10 6 0 11 -4 11 -10z m1050 -176 c0 -109 -13 -209 -29 -219 -12 -7 -83 30
-102 52 -26 29 -39 81 -39 153 l0 68 49 12 c57 13 92 43 73 62 -7 7 -12 19
-12 27 0 10 10 5 30 -14 30 -29 30 -29 30 -141z m670 76 c0 -38 5 -80 11 -94
10 -22 8 -28 -25 -57 -20 -17 -44 -45 -52 -61 -14 -28 -18 -29 -57 -23 -23 4
-43 8 -43 9 -1 0 -5 65 -9 142 l-7 142 67 0 c37 0 69 3 73 6 3 3 14 6 24 6 16
0 18 -9 18 -70z m-835 30 c-16 -5 -33 -6 -37 -2 -4 4 9 9 30 9 37 2 37 2 7 -7z
m296 -35 c17 3 40 7 50 10 14 5 19 1 20 -12 1 -10 4 -62 8 -116 l6 -99 -35 7
c-51 10 -88 7 -121 -10 l-29 -15 4 122 c3 68 5 124 5 125 1 1 14 -2 31 -7 16
-5 44 -7 61 -5z m-333 -96 c0 -100 14 -139 63 -184 l39 -35 -26 -56 -27 -57
-61 7 c-33 4 -98 9 -144 13 -78 6 -83 7 -89 32 -4 15 1 45 12 76 17 46 23 98
24 227 l1 47 58 3 c31 2 78 3 103 4 l46 0 1 -77z m-852 61 l54 0 0 -152 -1
-153 -39 -27 -38 -27 -49 24 c-26 13 -60 28 -75 34 l-28 10 21 36 c16 27 25
66 32 151 l11 116 29 -6 c16 -3 54 -6 83 -6z m1759 -168 c-3 -3 -12 -7 -21 -8
-11 -2 -12 1 -5 10 6 7 7 17 3 22 -4 4 1 2 11 -5 9 -8 15 -16 12 -19z m-488
-119 c-2 -16 -4 -5 -4 22 0 28 2 40 4 28 2 -13 2 -35 0 -50z m427 37 c35 -21
52 -45 37 -54 -10 -6 -91 52 -91 65 0 14 16 11 54 -11z m144 -5 c-3 -3 -9 2
-12 12 -6 14 -5 15 5 6 7 -7 10 -15 7 -18z m27 5 c3 -5 1 -10 -4 -10 -6 0 -11
5 -11 10 0 6 2 10 4 10 3 0 8 -4 11 -10z m-38 -46 c-3 -3 -12 -4 -19 -1 -8 3
-5 6 6 6 11 1 17 -2 13 -5z m126 -1 c-7 -2 -19 -2 -25 0 -7 3 -2 5 12 5 14 0
19 -2 13 -5z m-873 -12 c0 -6 -4 -13 -10 -16 -5 -3 -10 1 -10 9 0 9 5 16 10
16 6 0 10 -4 10 -9z m-90 -40 c-11 -22 -24 -42 -30 -46 -16 -10 -12 5 10 32
11 14 20 32 20 39 0 8 5 14 10 14 6 0 1 -18 -10 -39z m1010 23 c0 -2 -9 -4
-20 -4 -11 0 -20 4 -20 9 0 5 9 7 20 4 11 -3 20 -7 20 -9z m-780 -4 c0 -5 -2
-10 -4 -10 -3 0 -8 5 -11 10 -3 6 -1 10 4 10 6 0 11 -4 11 -10z m560 -10 c0
-5 -4 -10 -10 -10 -5 0 -10 5 -10 10 0 6 5 10 10 10 6 0 10 -4 10 -10z m-71
-14 c-11 -9 -59 -15 -59 -7 0 5 12 11 28 13 27 3 39 1 31 -6z m336 -6 c-3 -5
-11 -10 -16 -10 -6 0 -7 5 -4 10 3 6 11 10 16 10 6 0 7 -4 4 -10z m-2197 -12
c-3 -7 -13 -15 -24 -17 -25 -4 -35 -21 -28 -46 5 -17 4 -18 -7 -7 -8 7 -14 29
-14 48 0 33 1 34 38 34 27 0 37 -4 35 -12z m24 -40 c-8 -8 -9 -4 -5 13 4 13 8
18 11 10 2 -7 -1 -18 -6 -23z m218 5 c0 -26 -1 -26 -14 -7 -17 22 -33 12 -38
-26 -4 -29 -35 -39 -44 -15 -9 22 43 75 73 75 18 0 23 -5 23 -27z m1600 -3
c52 -8 50 -9 -25 -6 -44 1 -89 8 -100 15 -21 13 -25 13 125 -9z m417 4 c-3 -3
-12 -4 -19 -1 -8 3 -5 6 6 6 11 1 17 -2 13 -5z m-2175 -21 c25 -23 23 -45 -4
-41 -17 2 -24 11 -26 31 -4 31 4 34 30 10z m1318 13 c0 -2 -7 -7 -16 -10 -8
-3 -12 -2 -9 4 6 10 25 14 25 6z m648 -3 c-10 -2 -26 -2 -35 0 -10 3 -2 5 17
5 19 0 27 -2 18 -5z m63 -11 c-7 -2 -18 1 -23 6 -8 8 -4 9 13 5 13 -4 18 -8
10 -11z m92 11 c-13 -2 -35 -2 -50 0 -16 2 -5 4 22 4 28 0 40 -2 28 -4z m-956
-29 c-3 -3 -12 -4 -19 -1 -8 3 -5 6 6 6 11 1 17 -2 13 -5z m179 -29 c-17 -47
-186 -64 -268 -27 -27 11 -48 26 -48 31 0 14 -2 14 54 -5 58 -20 187 -15 232
9 32 17 39 15 30 -8z m-1176 -14 c-15 -28 -18 -29 -114 -40 -76 -9 -94 -8
-152 10 -36 11 -64 22 -61 25 2 2 17 0 33 -6 49 -19 211 -13 253 9 48 24 54
25 41 2z"/>
<path d="M5446 6741 c-10 -15 12 -61 29 -61 21 0 29 24 15 49 -11 22 -35 28
-44 12z"/>
<path d="M5140 6550 c0 -13 7 -20 20 -20 13 0 20 -7 20 -19 0 -29 14 -33 39
-12 28 25 27 38 -9 56 -41 21 -70 20 -70 -5z"/>
<path d="M6605 6150 c-17 -19 -15 -50 4 -50 14 0 52 51 45 61 -9 15 -30 10
-49 -11z"/>
<path d="M6315 6170 c-4 -6 -1 -18 6 -26 9 -11 8 -18 -6 -34 -14 -16 -16 -23
-7 -32 9 -9 16 -7 31 6 18 17 19 17 26 -3 8 -26 25 -18 25 11 0 22 -45 88 -60
88 -5 0 -12 -5 -15 -10z"/>
<path d="M5560 5970 c0 -15 5 -20 18 -18 9 2 17 10 17 18 0 8 -8 16 -17 18
-13 2 -18 -3 -18 -18z"/>
<path d="M5542 5898 c-19 -19 -14 -28 14 -28 18 0 25 5 22 17 -4 21 -21 26
-36 11z"/>
<path d="M5525 5830 c-3 -5 -4 -14 0 -20 8 -13 35 -1 35 16 0 16 -26 19 -35 4z"/>
<path d="M6590 5999 c0 -15 146 -67 156 -56 14 14 -7 36 -43 46 -74 21 -113
25 -113 10z"/>
<path d="M6570 5937 c0 -15 114 -52 130 -42 19 11 -7 32 -55 44 -57 14 -75 14
-75 -2z"/>
<path d="M4592 5333 c3 -19 80 -62 111 -63 9 0 17 7 17 15 0 9 -8 18 -17 21
-10 3 -36 14 -58 25 -49 24 -57 24 -53 2z"/>
<path d="M4490 5325 c0 -8 4 -15 8 -15 5 0 47 -25 93 -55 46 -30 88 -54 94
-52 24 8 5 30 -69 82 -79 54 -126 70 -126 40z"/>
<path d="M6252 5148 c-16 -16 -15 -55 2 -61 21 -8 49 28 41 52 -7 23 -25 27
-43 9z"/>
<path d="M5615 4911 c-39 -38 -316 -111 -421 -111 -47 0 -59 -7 -42 -27 29
-35 391 43 476 103 12 8 22 22 22 30 0 16 -21 19 -35 5z"/>
<path d="M5511 4786 c-53 -11 -77 -31 -49 -41 25 -9 133 19 133 35 0 19 -17
20 -84 6z"/>
<path d="M6866 5062 c-10 -17 9 -23 103 -29 91 -6 132 0 115 17 -14 14 -210
25 -218 12z"/>
<path d="M6856 4988 c-21 -33 -55 -200 -45 -225 6 -16 14 -19 33 -16 14 3 55
0 91 -7 103 -19 109 -16 144 96 33 103 39 152 19 158 -7 3 -61 7 -120 10 -104
6 -108 6 -122 -16z m218 -29 c6 -5 0 -27 -42 -148 l-15 -44 -86 7 c-47 4 -87
9 -90 11 -2 2 7 45 19 95 l23 92 93 -4 c51 -1 95 -6 98 -9z"/>
<path d="M6634 4918 c-7 -12 2 -20 39 -36 23 -10 29 -9 34 3 7 20 3 23 -36 35
-20 5 -33 5 -37 -2z"/>
<path d="M6755 4710 c-8 -13 6 -18 90 -30 57 -7 73 -7 84 5 13 12 11 16 -13
25 -35 13 -153 13 -161 0z"/>
<path d="M6970 4690 c-22 -14 -2 -28 44 -32 47 -3 61 17 21 32 -32 12 -46 12
-65 0z"/>
<path d="M6763 4662 c-13 -2 -23 -9 -23 -17 0 -9 24 -15 81 -20 85 -8 95 -5
86 20 -4 10 -20 15 -49 16 -24 0 -50 2 -58 3 -8 1 -25 0 -37 -2z"/>
<path d="M6955 4641 c-7 -13 2 -17 51 -26 44 -7 70 9 43 26 -19 12 -86 11 -94
0z"/>
<path d="M6952 4588 c5 -15 77 -18 81 -3 1 6 -18 11 -42 13 -32 2 -42 0 -39
-10z"/>
<path d="M6732 4564 c2 -12 20 -17 80 -20 78 -5 106 6 69 25 -11 6 -50 11 -86
11 -55 0 -66 -3 -63 -16z"/>
<path d="M6355 4560 c-9 -14 3 -30 23 -30 9 0 55 -14 102 -30 90 -32 134 -38
128 -18 -5 15 -73 42 -173 69 -38 10 -71 19 -72 19 -1 0 -5 -4 -8 -10z"/>
<path d="M6730 4512 c-16 -6 -12 -29 6 -36 24 -9 132 -7 138 3 11 16 -19 29
-77 33 -31 1 -62 2 -67 0z"/>
<path d="M6345 4461 c-11 -19 4 -30 73 -50 99 -30 110 -1 12 32 -25 9 -52 18
-61 22 -10 3 -20 2 -24 -4z"/>
<path d="M6713 4442 c-8 -19 -5 -20 69 -27 45 -4 68 -3 73 5 11 18 -3 24 -72
30 -49 4 -67 2 -70 -8z"/>
<path d="M6710 4365 c0 -13 11 -15 63 -13 34 2 62 8 62 13 0 6 -28 11 -62 13
-52 2 -63 0 -63 -13z"/>
<path d="M6212 4228 c-7 -7 -12 -23 -12 -36 0 -19 5 -23 23 -20 17 2 23 11 25
36 3 34 -13 43 -36 20z"/>
<path d="M3215 7170 c-3 -5 -24 -10 -45 -10 -93 0 -205 -70 -267 -168 -40 -62
-30 -60 -188 -23 -104 24 -169 27 -163 9 3 -7 18 -16 34 -20 16 -3 83 -19 149
-34 66 -15 122 -29 124 -30 2 -2 -9 -76 -24 -166 -23 -143 -31 -172 -67 -242
-23 -43 -72 -118 -110 -168 -65 -85 -117 -195 -103 -218 3 -5 -28 -29 -70 -52
-120 -68 -220 -142 -223 -165 -3 -17 -52 -53 -52 -37 0 36 75 423 95 492 15
50 16 51 58 54 l42 3 8 60 c17 137 29 224 43 299 8 43 14 82 14 87 0 31 -266
82 -297 57 -8 -6 -13 -34 -13 -69 0 -62 0 -61 -69 -110 l-44 -31 6 -120 c5
-110 -1 -163 -23 -213 -36 -83 -105 -292 -129 -390 -29 -121 -68 -267 -81
-300 -49 -127 -13 -295 73 -338 65 -33 122 -28 218 20 46 23 122 67 168 98 63
42 87 53 97 44 10 -8 33 1 96 38 84 49 139 76 143 71 7 -9 35 -104 35 -118 0
-9 -23 -38 -52 -64 -28 -26 -58 -59 -66 -74 -21 -40 -27 -173 -12 -240 13 -56
60 -161 88 -194 12 -14 11 -25 -3 -80 -9 -34 -20 -72 -25 -83 -9 -23 -50 -157
-80 -265 -12 -41 -43 -142 -70 -225 -27 -82 -72 -224 -101 -315 -29 -91 -57
-176 -60 -190 -4 -14 -15 -50 -23 -80 -14 -47 -100 -455 -127 -600 -42 -225
-65 -468 -46 -486 3 -4 45 -9 93 -12 l87 -5 -7 -101 c-4 -56 -11 -158 -15
-229 -4 -70 -10 -129 -12 -130 -52 -41 -217 -97 -354 -121 -50 -9 -93 -16 -97
-16 -4 0 -23 -14 -43 -31 -72 -64 -82 -129 -22 -148 98 -30 418 -40 642 -19
119 11 151 20 139 39 -2 4 1 20 7 36 6 15 15 91 20 168 10 161 22 262 43 390
21 123 25 133 50 137 18 3 21 10 23 58 4 85 45 383 64 460 5 20 16 74 24 120
35 185 101 422 172 618 42 114 88 244 103 288 15 45 32 89 37 98 11 20 17 7
82 -189 22 -66 54 -154 71 -195 18 -41 40 -97 50 -125 10 -27 51 -138 92 -245
74 -193 95 -242 188 -435 26 -55 60 -129 76 -165 15 -36 34 -72 41 -81 7 -8
13 -19 13 -23 0 -3 12 -25 27 -47 25 -38 30 -41 64 -36 37 5 38 4 90 -75 28
-44 79 -114 111 -156 55 -72 58 -80 53 -117 -10 -66 -56 -177 -84 -203 -14
-13 -64 -43 -111 -67 -101 -51 -135 -84 -149 -145 -16 -66 5 -80 118 -80 47 0
103 5 125 11 21 6 48 12 59 15 11 2 50 13 86 25 70 22 94 43 188 164 26 33 51
62 55 63 4 2 8 8 8 12 0 5 29 50 65 99 36 50 65 93 65 96 0 8 -100 146 -129
178 -13 15 -30 27 -37 27 -15 0 -133 160 -134 182 0 9 -3 18 -7 20 -13 5 -43
65 -43 85 0 14 15 27 48 42 26 12 58 30 71 40 l24 19 -46 78 c-46 77 -217 453
-217 477 0 7 -7 22 -15 34 -8 11 -26 52 -40 89 -62 164 -146 400 -190 534 -25
80 -53 163 -60 185 -40 117 -116 501 -114 578 0 23 -3 59 -6 80 -4 20 -3 50 3
65 6 15 13 35 16 45 5 16 9 16 55 -7 130 -67 242 -85 297 -50 36 24 74 94 74
137 0 53 -39 192 -79 282 -10 22 -24 58 -31 80 -7 22 -17 46 -23 53 -8 10 -6
22 7 43 18 30 18 30 -22 97 -117 198 -115 193 -113 259 1 34 -3 81 -9 105 -20
74 -73 200 -112 268 -21 36 -38 69 -38 74 0 4 -12 35 -27 68 l-26 60 18 49
c19 55 16 119 -7 147 -12 14 -13 33 -5 108 10 87 9 92 -17 149 -39 87 -69 120
-133 151 -32 16 -64 36 -71 46 -14 20 -47 24 -57 8z m58 -64 c63 -19 135 -73
159 -119 11 -22 18 -40 16 -41 -2 -1 -15 -7 -30 -14 -50 -21 -32 -62 28 -62
25 0 29 -7 16 -28 -7 -9 -20 -10 -58 -3 -27 6 -74 15 -104 21 -30 6 -77 16
-105 21 -58 13 -69 14 -190 29 -49 6 -91 13 -93 15 -6 5 45 92 58 100 6 4 10
-8 10 -29 0 -61 67 -87 134 -52 36 19 46 33 46 72 0 37 -26 63 -72 74 l-33 7
35 11 c50 15 129 14 183 -2z m-227 -124 c-9 -8 -26 10 -26 26 1 15 2 15 15 -2
8 -11 13 -21 11 -24z m69 28 c3 -6 -1 -7 -9 -4 -18 7 -21 14 -7 14 6 0 13 -4
16 -10z m32 -156 c42 -12 54 -21 59 -40 4 -14 21 -47 40 -73 l33 -48 -28 -21
-28 -20 -83 29 c-46 16 -85 31 -87 33 -3 3 0 21 7 41 13 41 8 65 -15 65 -10 0
-15 -10 -15 -33 0 -36 -30 -77 -58 -77 -9 -1 -34 -7 -56 -15 l-38 -13 4 41 c3
23 21 68 39 100 l34 58 70 -6 c39 -3 94 -13 122 -21z m-778 -6 c20 -7 22 -13
17 -41 -9 -51 -48 -298 -53 -341 l-5 -38 -66 7 c-36 4 -71 9 -79 12 -18 7 -17
23 2 23 27 0 65 23 65 41 0 9 7 19 15 23 8 3 15 15 15 27 0 13 6 30 14 38 7 9
16 35 19 58 7 59 -11 81 -75 89 l-50 7 6 45 c3 25 6 51 6 58 0 11 15 13 73 8
39 -4 83 -11 96 -16z m56 -83 c-4 -31 -10 -54 -12 -51 -3 3 -2 30 2 61 3 31 9
54 12 52 2 -3 1 -31 -2 -62z m-176 -54 c51 -14 30 -26 -46 -26 -68 0 -78 -2
-81 -18 -3 -16 1 -18 27 -12 42 9 133 -4 128 -18 -2 -7 -33 -11 -77 -11 -61
-1 -75 -4 -78 -18 -3 -14 3 -15 37 -11 49 7 94 -3 88 -20 -2 -7 -31 -14 -70
-17 -79 -6 -89 -23 -18 -30 54 -6 81 -20 38 -20 -38 0 -77 -17 -77 -35 0 -8
-4 -15 -8 -15 -14 0 -34 134 -26 176 13 71 75 100 163 75z m1211 -16 c7 -9 16
-34 20 -57 9 -50 -11 -88 -62 -114 -31 -16 -128 -35 -140 -28 -4 3 0 20 8 39
16 39 6 78 -22 89 -16 6 -16 8 -4 16 8 6 27 10 41 10 14 0 34 10 45 21 35 39
92 51 114 24z m-1059 -60 c-8 -36 -9 -37 -10 -10 -1 36 12 87 16 65 2 -9 -1
-33 -6 -55z m692 25 c72 -22 156 -66 163 -85 9 -21 -52 -130 -97 -174 -28 -27
-51 -41 -68 -41 -33 0 -109 35 -140 63 -37 35 -71 115 -71 172 l0 50 48 15
c68 23 91 23 165 0z m-708 -159 c-4 -45 -12 -81 -17 -81 -7 0 -8 16 -4 43 4
23 10 61 13 85 10 72 16 38 8 -47z m905 -50 c0 -11 -67 -71 -80 -71 -15 0 -12
8 18 46 25 31 62 46 62 25z m-1115 -39 c25 -7 59 -12 75 -12 17 0 30 -2 30 -5
0 -2 -7 -30 -15 -62 -9 -32 -27 -121 -41 -198 -14 -77 -35 -187 -45 -245 -32
-172 -34 -200 -16 -200 17 0 27 20 27 58 0 35 8 46 48 66 25 13 33 14 37 4 20
-53 85 -253 85 -262 0 -14 -161 -121 -265 -176 -70 -37 -86 -41 -127 -37 -83
10 -112 43 -129 147 -11 62 -10 78 4 118 9 26 28 92 42 147 24 92 48 181 89
327 8 32 26 83 39 115 13 32 36 97 51 146 18 55 33 87 42 87 8 0 15 6 15 13 1
6 3 5 6 -4 2 -8 24 -20 48 -27z m1048 -137 c0 -36 -2 -67 -5 -70 -7 -8 -208
-9 -215 -1 -3 3 0 12 6 20 7 8 13 35 14 59 l2 45 70 0 c38 0 81 4 95 10 14 5
27 8 29 6 2 -2 4 -33 4 -69z m17 -105 c0 -5 -5 -10 -11 -10 -5 0 -7 5 -4 10 3
6 8 10 11 10 2 0 4 -4 4 -10z m-170 -25 c0 -8 -8 -11 -20 -8 -20 5 -25 15 -14
26 9 9 34 -4 34 -18z m68 3 c-7 -19 -38 -22 -38 -4 0 10 9 16 21 16 12 0 19
-5 17 -12z m276 -45 c-27 -63 -40 -80 -51 -70 -10 10 48 127 64 127 9 0 5 -17
-13 -57z m-44 42 c0 -3 -9 -22 -20 -42 -31 -58 -24 -103 15 -103 27 0 45 20
79 88 28 55 36 63 36 34 0 -18 -123 -220 -182 -299 -28 -38 -68 -58 -68 -35 0
4 -13 16 -30 25 l-29 18 48 82 c59 100 84 143 111 196 11 23 25 41 30 41 6 0
10 -2 10 -5z m-485 -35 c-3 -5 -12 -10 -18 -10 -7 0 -6 4 3 10 19 12 23 12 15
0z m385 -10 c0 -11 -7 -20 -15 -20 -13 0 -14 4 -5 20 6 11 13 20 15 20 3 0 5
-9 5 -20z m-285 -10 c-27 -12 -43 -12 -25 0 8 5 22 9 30 9 10 0 8 -3 -5 -9z
m-188 -6 c-3 -3 -12 -4 -19 -1 -8 3 -5 6 6 6 11 1 17 -2 13 -5z m316 -1 c-13
-2 -33 -2 -45 0 -13 2 -3 4 22 4 25 0 35 -2 23 -4z m-473 -35 c0 -18 -5 -71
-10 -118 -6 -47 -13 -130 -16 -185 -7 -110 -14 -138 -14 -55 0 51 -1 53 -17
38 -10 -11 -16 -33 -16 -60 0 -33 -4 -46 -21 -55 -32 -19 -41 -16 -42 15 -1
88 -5 133 -11 129 -5 -3 -9 13 -10 35 -2 55 -23 131 -40 141 -7 4 -13 13 -13
18 0 6 5 7 10 4 6 -3 10 1 10 11 0 9 8 23 18 30 19 15 56 19 48 5 -10 -15 6
-72 18 -68 11 4 12 17 2 74 -4 28 -1 32 27 43 18 6 39 16 47 20 25 15 30 11
30 -22z m197 26 c-3 -3 -12 -4 -19 -1 -8 3 -5 6 6 6 11 1 17 -2 13 -5z m320
-10 c-3 -3 -12 -4 -19 -1 -8 3 -5 6 6 6 11 1 17 -2 13 -5z m391 -43 c2 -12 11
-25 20 -28 9 -4 22 -14 28 -22 13 -16 7 -44 -6 -36 -5 3 -12 0 -16 -6 -5 -8
-3 -9 6 -4 8 5 11 4 6 -3 -4 -6 -12 -9 -19 -7 -7 2 -23 -5 -36 -16 -19 -15
-22 -22 -12 -32 9 -9 13 -7 17 11 4 12 11 19 16 16 5 -4 22 3 38 14 20 15 30
18 39 9 18 -18 13 -35 -19 -59 -16 -12 -30 -28 -30 -35 0 -19 9 -16 46 12 18
14 35 25 37 25 3 0 10 -14 16 -30 9 -27 7 -32 -14 -46 -14 -9 -22 -21 -18 -27
3 -5 2 -8 -3 -4 -5 3 -20 0 -33 -7 -21 -12 -21 -14 -6 -20 19 -7 63 16 71 38
3 8 14 12 25 9 18 -5 23 -14 20 -40 -1 -6 7 -17 17 -25 20 -14 36 -48 24 -48
-4 0 -23 -14 -42 -31 -19 -17 -29 -27 -21 -23 9 4 12 3 7 -4 -4 -6 -13 -9 -21
-5 -9 3 -15 -1 -15 -10 0 -9 -5 -19 -12 -23 -7 -4 -8 -3 -4 4 4 7 2 12 -3 12
-6 0 -11 -5 -11 -11 0 -5 -5 -7 -12 -3 -8 5 -9 2 -5 -9 4 -11 1 -17 -9 -17 -9
0 -12 5 -8 12 4 7 3 8 -5 4 -6 -4 -9 -11 -7 -14 6 -9 -31 -8 -61 2 -32 10 -29
20 16 42 29 14 37 22 29 31 -7 9 -4 11 14 8 30 -6 145 72 130 87 -12 12 -35 1
-27 -12 3 -5 1 -11 -5 -15 -5 -3 -10 0 -10 7 -1 9 -5 7 -14 -4 -7 -10 -16 -15
-19 -11 -4 3 -7 -1 -7 -10 0 -9 -5 -17 -11 -17 -5 0 -7 5 -3 12 4 7 3 8 -4 4
-7 -4 -12 -15 -12 -24 0 -13 -2 -14 -9 -3 -7 11 -13 9 -30 -8 -11 -11 -21 -19
-21 -16 0 3 -11 -2 -24 -10 -23 -15 -24 -15 -29 12 -4 20 0 31 14 41 10 7 19
21 20 30 0 9 3 12 5 6 3 -7 14 -9 25 -7 16 5 18 8 7 15 -9 7 -7 8 9 5 13 -3
26 -1 29 4 8 14 -38 10 -70 -6 -41 -21 -56 -19 -56 9 0 33 10 57 21 50 5 -3 6
2 3 10 -3 9 -10 16 -15 16 -16 0 -9 49 9 59 14 8 15 12 5 22 -20 20 -16 44 12
77 24 29 35 69 15 57 -6 -4 -10 5 -10 20 0 32 23 29 28 -4z m-1122 -88 c4 -16
9 -32 12 -37 3 -5 6 -23 8 -40 4 -44 10 -75 22 -121 5 -22 13 -66 16 -98 5
-47 3 -59 -9 -64 -23 -8 -25 -3 -39 77 -6 39 -15 67 -20 63 -5 -4 -5 3 -1 16
5 17 4 22 -6 19 -8 -3 -14 -16 -13 -29 2 -43 16 -124 23 -134 11 -15 7 -48 -6
-52 -7 -3 -16 13 -23 39 -6 24 -27 93 -45 153 -48 158 -47 151 -30 165 14 12
29 8 30 -8 1 -4 7 -25 15 -47 13 -38 15 -45 18 -72 3 -17 32 -4 32 14 0 8 -4
11 -10 8 -6 -3 -7 1 -4 10 4 8 1 22 -6 30 -7 8 -10 15 -6 15 3 0 0 16 -9 36
-19 45 -4 79 37 83 4 1 11 -11 14 -26z m1014 3 c0 -2 -8 -10 -17 -17 -16 -13
-17 -12 -4 4 13 16 21 21 21 13z m-288 -48 c-7 -7 -12 -8 -12 -2 0 14 12 26
19 19 2 -3 -1 -11 -7 -17z m-435 -10 c-3 -8 -6 -5 -6 6 -1 11 2 17 5 13 3 -3
4 -12 1 -19z m923 -18 c0 -5 -5 -10 -11 -10 -5 0 -7 5 -4 10 3 6 8 10 11 10 2
0 4 -4 4 -10z m-557 -15 c-3 -9 -8 -14 -10 -11 -3 3 -2 9 2 15 9 16 15 13 8
-4z m-406 -47 c-3 -7 -5 -2 -5 12 0 14 2 19 5 13 2 -7 2 -19 0 -25z m676 7
c-3 -9 -8 -14 -10 -11 -3 3 -2 9 2 15 9 16 15 13 8 -4z m-154 -40 c51 -48 101
-61 101 -27 1 20 32 -17 65 -78 18 -33 158 -168 329 -319 79 -69 103 -84 116
-76 15 9 -23 49 -109 118 -56 45 -62 52 -46 62 10 5 44 27 75 48 64 42 70 43
70 22 0 -8 4 -23 10 -33 11 -19 49 -118 86 -226 31 -89 31 -159 2 -203 -13
-18 -32 -36 -43 -40 -65 -21 -188 14 -300 85 -27 18 -130 110 -227 205 -97 94
-206 200 -242 233 -48 45 -66 69 -66 87 0 20 4 24 21 20 19 -5 20 -3 14 31 -7
34 -6 36 19 36 28 0 33 9 15 27 -17 17 -3 31 26 25 25 -4 35 11 15 23 -12 7
-4 25 11 25 5 0 32 -20 58 -45z m-174 -5 c3 -5 1 -10 -4 -10 -6 0 -11 5 -11
10 0 6 2 10 4 10 3 0 8 -4 11 -10z m-357 -25 c-1 -13 -6 -21 -10 -17 -5 5 -6
16 -2 25 9 24 14 21 12 -8z m29 3 c-3 -8 -6 -5 -6 6 -1 11 2 17 5 13 3 -3 4
-12 1 -19z m303 -38 c0 -10 -7 -21 -16 -24 -14 -5 -15 -4 -5 8 6 7 8 22 4 31
-4 13 -3 16 5 11 7 -4 12 -15 12 -26z m397 8 c-3 -8 -6 -5 -6 6 -1 11 2 17 5
13 3 -3 4 -12 1 -19z m43 8 c0 -8 -4 -17 -8 -20 -4 -2 -8 4 -8 15 0 10 4 19 8
19 4 0 8 -6 8 -14z m-770 -70 c0 -3 -4 -8 -10 -11 -5 -3 -10 -1 -10 4 0 6 5
11 10 11 6 0 10 -2 10 -4z m37 -28 c-3 -7 -5 -2 -5 12 0 14 2 19 5 13 2 -7 2
-19 0 -25z m1064 18 c10 6 39 -13 39 -26 0 -13 -133 -115 -168 -129 -29 -12
-35 -12 -52 4 -25 22 -25 35 -2 35 26 0 172 97 168 112 -1 7 -1 10 1 5 3 -4 9
-4 14 -1z m-36 -16 c-3 -5 -12 -10 -18 -10 -7 0 -6 4 3 10 19 12 23 12 15 0z
m-692 -95 c44 -40 45 -48 13 -63 -22 -10 -28 -7 -55 24 -26 29 -29 39 -21 54
14 27 19 26 63 -15z m-333 -26 c0 -11 -4 -18 -9 -14 -6 3 -9 14 -8 25 2 24 17
15 17 -11z m187 -61 c-3 -8 -6 -5 -6 6 -1 11 2 17 5 13 3 -3 4 -12 1 -19z m93
6 c0 -16 -152 -160 -216 -204 -86 -60 -104 -68 -104 -47 0 8 28 34 63 58 111
76 161 116 197 158 31 36 60 53 60 35z m-332 -114 c-1 -49 -6 -90 -10 -90 -12
0 -10 -74 2 -86 7 -7 3 -21 -13 -45 -33 -49 -37 -65 -26 -99 18 -49 4 -58 -20
-13 -23 46 -51 174 -51 235 0 53 14 82 66 138 26 28 49 50 51 50 2 0 3 -40 1
-90z m129 64 c-3 -3 -12 -4 -19 -1 -8 3 -5 6 6 6 11 1 17 -2 13 -5z m7 -46
c-3 -4 -12 -8 -20 -8 -8 0 -13 4 -10 8 3 5 12 9 20 9 8 0 13 -4 10 -9z m266
-2 c0 -3 -4 -8 -10 -11 -5 -3 -10 -1 -10 4 0 6 5 11 10 11 6 0 10 -2 10 -4z
m-40 -67 c-7 -11 -14 -18 -17 -15 -3 3 0 12 7 21 18 21 23 19 10 -6z m-93 5
c-3 -3 -12 -4 -19 -1 -8 3 -5 6 6 6 11 1 17 -2 13 -5z m63 -45 c0 -5 -4 -9 -8
-9 -5 0 -9 7 -9 15 0 8 4 12 9 9 4 -3 8 -9 8 -15z m365 -29 c3 -5 1 -10 -4
-10 -6 0 -11 5 -11 10 0 6 2 10 4 10 3 0 8 -4 11 -10z m-540 -10 c3 -5 1 -10
-4 -10 -6 0 -11 5 -11 10 0 6 2 10 4 10 3 0 8 -4 11 -10z m125 -10 c0 -5 -5
-10 -11 -10 -5 0 -7 5 -4 10 3 6 8 10 11 10 2 0 4 -4 4 -10z m110 -14 c0 -3
-4 -8 -10 -11 -5 -3 -10 -1 -10 4 0 6 5 11 10 11 6 0 10 -2 10 -4z m391 -53
c13 -16 12 -17 -3 -4 -10 7 -18 15 -18 17 0 8 8 3 21 -13z m-731 -3 c0 -5 -5
-10 -11 -10 -5 0 -7 5 -4 10 3 6 8 10 11 10 2 0 4 -4 4 -10z m157 -42 c-3 -8
-6 -5 -6 6 -1 11 2 17 5 13 3 -3 4 -12 1 -19z m613 12 c0 -5 -2 -10 -4 -10 -3
0 -8 5 -11 10 -3 6 -1 10 4 10 6 0 11 -4 11 -10z m-810 -57 c0 -21 -3 -24 -9
-14 -5 8 -7 20 -4 28 8 21 13 15 13 -14z m740 -57 c0 -2 -9 -6 -20 -9 -11 -3
-18 -1 -14 4 5 9 34 13 34 5z m-113 -22 c-3 -3 -12 -4 -19 -1 -8 3 -5 6 6 6
11 1 17 -2 13 -5z m-617 -39 c0 -19 -4 -35 -10 -35 -5 0 -10 16 -10 35 0 19 5
35 10 35 6 0 10 -16 10 -35z m277 29 c-3 -3 -12 -4 -19 -1 -8 3 -5 6 6 6 11 1
17 -2 13 -5z m-227 -45 c0 -24 -4 -38 -10 -34 -5 3 -10 22 -10 41 0 19 5 34
10 34 6 0 10 -18 10 -41z m750 27 c0 -8 3 -23 6 -33 5 -16 4 -16 -10 1 -18 22
-21 46 -6 46 6 0 10 -6 10 -14z m-680 -20 c0 -6 3 -21 6 -33 5 -18 2 -23 -14
-23 -15 0 -22 9 -27 30 -4 16 -4 34 0 39 7 13 35 3 35 -13z m637 -10 c9 -29 8
-36 -4 -41 -26 -9 -56 48 -36 68 15 16 30 5 40 -27z m-77 7 c0 -10 3 -28 6
-40 10 -37 -25 -29 -41 9 -10 25 -10 35 -2 40 20 13 37 9 37 -9z m-478 -17
c11 -16 10 -44 -3 -52 -15 -9 -35 14 -43 49 -6 26 -5 28 16 21 13 -3 26 -12
30 -18z m402 0 c3 -13 9 -31 12 -40 5 -12 0 -16 -20 -16 -20 0 -27 6 -32 28
-3 15 -7 33 -10 40 -2 7 6 12 20 12 17 0 26 -7 30 -24z m-330 -2 c3 -9 6 -27
6 -41 0 -18 -5 -24 -17 -21 -23 4 -32 78 -10 78 8 0 18 -7 21 -16z m94 -27 c3
-37 2 -38 -24 -35 -23 3 -28 8 -31 41 -4 37 -3 38 24 35 25 -3 28 -8 31 -41z
m72 34 c0 -5 3 -23 6 -40 6 -26 4 -31 -14 -31 -22 0 -32 18 -32 56 0 17 6 24
20 24 11 0 20 -4 20 -9z m84 -13 c11 -42 7 -58 -14 -58 -21 0 -24 4 -34 53 -6
24 -3 27 18 27 16 0 26 -7 30 -22z m86 -140 c0 -12 -6 -9 -26 13 -19 22 -19
22 4 8 12 -8 22 -17 22 -21z m-303 -13 c0 -8 -4 -12 -9 -9 -5 3 -6 10 -3 15 9
13 12 11 12 -6z m341 -18 c14 -10 16 -27 2 -27 -5 0 -10 7 -10 16 0 8 -4 13
-9 9 -5 -3 -12 -1 -15 4 -7 11 13 9 32 -2z m-335 -27 c3 -11 1 -20 -4 -20 -5
0 -9 9 -9 20 0 11 2 20 4 20 2 0 6 -9 9 -20z m409 -22 c-7 -7 -12 -8 -12 -2 0
6 3 14 7 17 3 4 9 5 12 2 2 -3 -1 -11 -7 -17z m-22 0 c0 -4 -4 -8 -9 -8 -6 0
-12 4 -15 8 -3 5 1 9 9 9 8 0 15 -4 15 -9z m37 -50 c-3 -8 -6 -5 -6 6 -1 11 2
17 5 13 3 -3 4 -12 1 -19z m-420 -50 c-3 -8 -6 -5 -6 6 -1 11 2 17 5 13 3 -3
4 -12 1 -19z m430 0 c-3 -8 -6 -5 -6 6 -1 11 2 17 5 13 3 -3 4 -12 1 -19z m10
-63 c0 -8 -4 -12 -9 -9 -4 3 -8 9 -8 15 0 5 4 9 8 9 5 0 9 -7 9 -15z m-392
-64 c3 -5 2 -12 -3 -15 -5 -3 -9 1 -9 9 0 17 3 19 12 6z m410 -51 c3 -5 1 -10
-4 -10 -6 0 -11 5 -11 10 0 6 2 10 4 10 3 0 8 -4 11 -10z m-510 -129 c3 -5 1
-12 -5 -16 -5 -3 -10 1 -10 9 0 18 6 21 15 7z m-28 -56 c0 -8 -4 -12 -9 -9 -4
3 -8 9 -8 15 0 5 4 9 8 9 5 0 9 -7 9 -15z m-192 -515 c3 -5 1 -10 -4 -10 -6 0
-11 5 -11 10 0 6 2 10 4 10 3 0 8 -4 11 -10z m982 -33 c1 -29 1 -30 -8 -9 -5
13 -7 28 -3 33 8 14 9 12 11 -24z m33 -87 c0 -5 -2 -10 -4 -10 -3 0 -8 5 -11
10 -3 6 -1 10 4 10 6 0 11 -4 11 -10z m-1073 -107 c1 -19 -1 -22 -8 -12 -11
17 -12 39 -1 39 4 0 8 -12 9 -27z m-31 -115 c4 -7 3 -8 -4 -4 -7 4 -12 0 -12
-10 0 -10 -3 -15 -6 -11 -7 6 2 37 10 37 3 0 8 -5 12 -12z m-129 -500 c-3 -8
-6 -5 -6 6 -1 11 2 17 5 13 3 -3 4 -12 1 -19z m1522 -94 c17 -34 31 -66 31
-71 0 -19 -145 -133 -170 -133 -10 0 -80 102 -80 117 0 4 34 25 75 47 75 38
98 61 94 94 -1 9 0 26 1 37 1 17 3 16 10 -5 4 -14 21 -53 39 -86z m64 -135 c3
-12 3 -18 0 -15 -9 9 -53 -35 -53 -53 0 -14 -1 -14 -10 -1 -8 13 -10 12 -10
-2 0 -10 -7 -18 -15 -18 -7 0 -18 -6 -22 -14 -4 -8 -10 -15 -13 -15 -3 0 -13
-3 -23 -7 -16 -6 -48 11 -36 19 84 55 120 82 139 102 29 30 36 31 43 4z
m-1563 -69 c14 0 13 -24 -6 -105 l-17 -70 -91 1 c-148 1 -136 -4 -136 58 0 29
3 73 6 97 l6 45 69 -4 c64 -4 70 -3 96 24 l28 29 17 -37 c9 -21 22 -38 28 -38z
m1580 15 c-6 -8 -8 -20 -4 -26 5 -8 2 -10 -8 -7 -17 7 -52 -28 -43 -42 3 -6
-1 -7 -9 -4 -11 4 -16 0 -16 -11 0 -11 -5 -15 -14 -12 -8 3 -22 -3 -32 -14
-18 -20 -18 -20 -30 3 -13 24 -10 38 7 38 6 0 7 -6 3 -12 -10 -16 19 6 66 49
19 18 38 33 43 33 5 0 7 7 4 14 -4 10 -1 13 7 10 8 -3 18 0 22 7 6 10 9 10 12
1 2 -7 -1 -19 -8 -27z m74 -61 c34 -44 35 -48 21 -74 -21 -41 -165 -128 -165
-99 0 6 -11 25 -25 43 -14 18 -25 37 -24 42 0 5 23 26 50 47 28 21 47 43 43
49 -4 6 -1 9 6 6 8 -2 22 4 32 14 10 10 20 18 23 18 2 0 20 -21 39 -46z m121
-120 c28 -37 28 -37 10 -70 -22 -41 -29 -42 -43 -6 -19 50 -23 72 -17 92 9 28
19 25 50 -16z m-1807 -63 c3 -20 -1 -21 -85 -22 -131 -2 -152 3 -141 33 4 10
32 13 114 12 103 -2 109 -3 112 -23z m1722 -5 c0 -3 -4 -8 -10 -11 -5 -3 -10
-1 -10 4 0 6 5 11 10 11 6 0 10 -2 10 -4z m73 -125 c-37 -55 -99 -138 -138
-185 -63 -77 -75 -87 -130 -106 -33 -12 -73 -26 -90 -31 -45 -16 -244 -24
-258 -10 -13 13 -8 14 85 11 71 -2 209 28 288 62 35 15 55 34 89 84 24 36 65
92 90 124 25 32 64 84 86 115 22 31 41 52 43 46 2 -6 -27 -56 -65 -110z
m-1975 87 c7 -7 42 -11 92 -10 63 0 80 -2 80 -14 0 -18 -57 -22 -155 -10 -22
2 -48 5 -58 5 -15 1 -15 4 -5 21 14 23 29 25 46 8z m1862 -23 c0 -2 -6 -5 -13
-8 -8 -3 -14 1 -14 8 0 7 6 11 14 8 7 -3 13 -6 13 -8z m-80 -10 c0 -11 -12
-15 -50 -15 -76 0 -65 28 13 29 27 1 37 -3 37 -14z m-1770 -26 c0 9 4 10 13 4
6 -5 33 -8 60 -7 26 1 47 -2 47 -6 0 -4 8 -6 18 -4 15 5 17 -2 14 -56 -4 -56
-6 -62 -30 -71 -34 -14 -118 -7 -157 12 -28 13 -30 18 -30 69 0 49 2 55 25 60
14 4 28 2 32 -4 5 -7 8 -6 8 3z m1750 -29 c11 -7 12 -12 3 -21 -17 -17 -104
-3 -96 17 6 16 69 19 93 4z m-30 -75 c0 -16 -43 -21 -74 -9 -27 10 -7 24 35
24 28 0 39 -4 39 -15z m71 -35 c6 0 7 -5 4 -11 -5 -6 -12 -4 -20 8 -7 10 -10
22 -7 28 4 5 8 2 10 -7 2 -10 8 -18 13 -18z m-31 -9 c0 -6 -4 -13 -10 -16 -5
-3 -10 1 -10 9 0 9 5 16 10 16 6 0 10 -4 10 -9z m-1861 -58 c2 -24 -17 -13
-23 12 -9 35 6 58 15 25 4 -14 7 -31 8 -37z m45 51 c20 -8 21 -30 1 -38 -8 -3
-15 -1 -15 3 0 5 -3 16 -6 25 -7 18 -4 19 20 10z m1736 -9 c-11 -10 -26 -13
-53 -8 -54 8 -45 23 15 23 46 0 51 -2 38 -15z m81 -28 c-10 -9 -11 -8 -5 6 3
10 9 15 12 12 3 -3 0 -11 -7 -18z m-1917 -3 c9 -24 7 -34 -8 -34 -16 0 -29 27
-20 41 8 14 21 11 28 -7z m167 -27 c-8 -8 -11 -7 -11 4 0 9 3 19 7 23 4 4 9 2
11 -4 3 -7 -1 -17 -7 -23z m1590 21 c19 -6 49 -22 68 -34 l34 -23 -29 -11
c-106 -41 -294 -65 -309 -40 -11 17 32 51 110 90 68 33 79 35 126 18z m117
-13 c-3 -3 -9 2 -12 12 -6 14 -5 15 5 6 7 -7 10 -15 7 -18z m-1938 -15 c0 -35
-14 -39 -30 -10 -12 23 -6 40 16 40 9 0 14 -11 14 -30z m-63 -19 c10 -16 9
-20 -12 -24 -22 -4 -55 18 -55 36 0 16 56 6 67 -12z m233 -1 c-24 -15 -37 -11
-16 5 11 8 22 12 25 9 3 -3 -1 -9 -9 -14z m-332 -9 c8 -5 12 -23 10 -47 l-3
-39 -58 -3 c-65 -3 -167 14 -167 28 0 19 55 45 119 56 84 15 84 15 99 5z m417
-11 c3 -5 1 -10 -4 -10 -6 0 -11 5 -11 10 0 6 2 10 4 10 3 0 8 -4 11 -10z
m105 -18 c0 -32 -16 -52 -42 -52 -23 0 -23 5 3 46 25 41 39 43 39 6z m-333
-18 c-3 -3 -12 -4 -19 -1 -8 3 -5 6 6 6 11 1 17 -2 13 -5z m-382 -59 c65 -20
429 -30 580 -16 103 9 126 8 113 -4 -3 -3 -58 -12 -122 -20 -94 -11 -160 -12
-330 -5 -117 5 -220 12 -227 14 -8 2 -26 7 -41 10 -16 4 -28 13 -28 21 0 8 1
15 3 15 1 0 24 -7 52 -15z"/>
<path d="M2945 6787 c-17 -26 -11 -57 10 -57 14 0 25 22 25 50 0 30 -18 33
-35 7z"/>
<path d="M3111 6781 c-14 -25 -14 -48 -1 -56 18 -11 41 16 38 43 -4 32 -23 39
-37 13z"/>
<path d="M2217 6844 c-10 -11 -8 -72 2 -79 13 -8 33 31 29 57 -3 22 -19 33
-31 22z"/>
<path d="M2270 6826 c0 -9 7 -16 16 -16 17 0 14 22 -4 28 -7 2 -12 -3 -12 -12z"/>
<path d="M3384 6666 c-33 -10 -79 -69 -70 -92 6 -15 26 -20 26 -6 0 5 6 17 14
28 14 18 15 18 25 -8 16 -42 34 -35 29 11 -3 32 0 41 14 44 21 6 24 23 6 29
-7 2 -27 0 -44 -6z"/>
<path d="M3137 6594 c-4 -4 -55 -8 -114 -8 -72 -1 -108 -5 -110 -13 -6 -18 36
-27 117 -24 105 3 155 13 155 31 0 16 -36 26 -48 14z"/>
<path d="M3012 6503 c3 -15 13 -17 53 -15 55 4 60 6 50 21 -3 6 -29 11 -56 11
-43 0 -50 -3 -47 -17z"/>
<path d="M2538 5913 c-6 -24 24 -183 34 -183 13 0 21 50 9 64 -6 7 -8 15 -5
19 8 7 -17 117 -26 117 -4 0 -10 -8 -12 -17z m39 -155 c-3 -8 -6 -5 -6 6 -1
11 2 17 5 13 3 -3 4 -12 1 -19z"/>
<path d="M3546 5814 c-9 -8 -16 -12 -16 -8 0 5 -5 3 -11 -3 -6 -6 -8 -16 -5
-21 10 -16 66 16 59 33 -7 19 -8 19 -27 -1z"/>
<path d="M1910 6956 c0 -18 120 -106 144 -106 34 0 14 28 -52 73 -70 49 -92
57 -92 33z"/>
<path d="M1899 6834 c-8 -10 -8 -15 2 -19 27 -10 114 -23 121 -19 13 8 9 34
-4 35 -7 0 -34 4 -61 8 -35 6 -50 4 -58 -5z"/>
<path d="M5613 6804 c-8 -20 8 -48 31 -52 11 -3 16 4 16 20 0 40 -35 63 -47
32z"/>
<path d="M1943 6763 c-31 -16 -41 -32 -27 -46 11 -11 95 27 92 43 -4 21 -27
22 -65 3z"/>
<path d="M7649 4294 c-21 -6 -29 -110 -30 -410 l-1 -221 -56 -7 c-126 -15
-192 -73 -246 -213 -49 -130 -63 -210 -75 -433 -10 -185 -10 -245 4 -505 7
-124 38 -319 61 -381 15 -42 47 -70 125 -111 36 -19 36 -19 18 -42 -29 -35
-24 -78 11 -111 36 -34 55 -39 97 -28 40 10 67 56 61 103 l-4 32 68 -1 c74 -2
274 17 350 34 27 5 51 10 53 10 3 0 5 -17 5 -39 0 -57 35 -91 94 -91 38 0 48
4 62 25 22 34 23 98 2 122 -16 17 -16 20 11 37 29 20 94 103 124 159 12 23 20
75 27 163 6 71 15 194 21 274 7 91 9 250 5 425 -7 307 -21 403 -71 475 -14 20
-25 41 -25 47 0 25 -60 54 -125 60 l-67 6 7 302 c7 290 6 303 -11 308 -25 7
-475 17 -495 11z m398 -138 c4 -4 5 -477 1 -481 -3 -3 -259 -8 -316 -6 l-22 1
6 173 c3 94 7 186 9 202 2 17 4 52 4 79 l1 49 157 -7 c86 -3 158 -8 160 -10z
m69 -223 c-2 -131 -5 -244 -5 -250 -1 -7 -8 -13 -17 -13 -13 0 -14 16 -10 118
3 64 6 173 7 242 1 128 3 140 20 140 6 0 8 -88 5 -237z m-426 155 c-1 -40 -4
-153 -7 -250 -4 -141 -8 -178 -19 -178 -16 0 -17 44 -7 318 5 143 9 182 20
182 10 0 13 -18 13 -72z m67 -490 c-3 -8 -6 -5 -6 6 -1 11 2 17 5 13 3 -3 4
-12 1 -19z m320 -20 c-3 -8 -6 -5 -6 6 -1 11 2 17 5 13 3 -3 4 -12 1 -19z
m-525 -30 c-6 -6 -7 0 -4 19 5 21 7 23 10 9 2 -10 0 -22 -6 -28z m215 0 c-3
-7 -5 -2 -5 12 0 14 2 19 5 13 2 -7 2 -19 0 -25z m543 7 c0 -8 -2 -15 -4 -15
-2 0 -6 7 -10 15 -3 8 -1 15 4 15 6 0 10 -7 10 -15z m-663 -37 c-3 -8 -6 -5
-6 6 -1 11 2 17 5 13 3 -3 4 -12 1 -19z m570 0 c-3 -8 -6 -5 -6 6 -1 11 2 17
5 13 3 -3 4 -12 1 -19z m10 -110 c-2 -18 -4 -4 -4 32 0 36 2 50 4 33 2 -18 2
-48 0 -65z m-447 43 c0 -6 -4 -13 -10 -16 -5 -3 -10 1 -10 9 0 9 5 16 10 16 6
0 10 -4 10 -9z m-263 -23 c-3 -8 -6 -5 -6 6 -1 11 2 17 5 13 3 -3 4 -12 1 -19z
m300 7 c0 -8 -4 -12 -9 -9 -4 3 -8 9 -8 15 0 5 4 9 8 9 5 0 9 -7 9 -15z m-250
-38 c11 4 14 2 9 -5 -11 -18 -36 -14 -35 6 0 9 3 12 5 5 3 -7 12 -9 21 -6z
m396 -17 c-4 -5 -60 -14 -123 -20 -63 -7 -119 -14 -124 -17 -5 -3 -7 0 -4 8 3
9 30 17 79 22 41 4 94 11 119 15 47 8 67 5 53 -8z m-552 -51 c-5 -13 -10 -19
-10 -12 -1 15 10 45 15 40 3 -2 0 -15 -5 -28z m564 -9 c-11 -5 -40 -8 -65 -8
l-45 1 45 7 c25 4 54 7 65 8 l20 1 -20 -9z m92 -22 c-3 -7 -5 -2 -5 12 0 14 2
19 5 13 2 -7 2 -19 0 -25z m-382 2 c3 -5 -1 -10 -10 -10 -9 0 -13 5 -10 10 3
6 8 10 10 10 2 0 7 -4 10 -10z m138 3 c-7 -2 -19 -2 -25 0 -7 3 -2 5 12 5 14
0 19 -2 13 -5z m384 -40 c-3 -10 -5 -4 -5 12 0 17 2 24 5 18 2 -7 2 -21 0 -30z
m-424 20 c-7 -2 -19 -2 -25 0 -7 3 -2 5 12 5 14 0 19 -2 13 -5z m404 -55 c-3
-8 -6 -5 -6 6 -1 11 2 17 5 13 3 -3 4 -12 1 -19z m-807 -12 c0 -3 -4 -8 -10
-11 -5 -3 -10 -1 -10 4 0 6 5 11 10 11 6 0 10 -2 10 -4z m384 -11 c-4 -8 -8
-15 -10 -15 -2 0 -4 7 -4 15 0 8 4 15 10 15 5 0 7 -7 4 -15z m-404 -25 c0 -5
-8 -10 -17 -10 -15 0 -16 2 -3 10 19 12 20 12 20 0z m847 -22 c-3 -8 -6 -5 -6
6 -1 11 2 17 5 13 3 -3 4 -12 1 -19z m-440 -20 c-3 -7 -5 -2 -5 12 0 14 2 19
5 13 2 -7 2 -19 0 -25z m-455 -27 c2 -17 1 -28 -4 -25 -8 5 -12 54 -4 54 2 0
6 -13 8 -29z m68 9 c0 -5 -7 -7 -15 -4 -8 4 -15 8 -15 10 0 2 7 4 15 4 8 0 15
-4 15 -10z m667 -37 c-3 -10 -5 -2 -5 17 0 19 2 27 5 18 2 -10 2 -26 0 -35z
m-540 -5 c-3 -8 -6 -5 -6 6 -1 11 2 17 5 13 3 -3 4 -12 1 -19z m700 -10 c-3
-8 -6 -5 -6 6 -1 11 2 17 5 13 3 -3 4 -12 1 -19z m-660 -3 c0 -8 -4 -15 -9
-15 -10 0 -11 14 -1 23 9 10 10 9 10 -8z m643 -99 c0 -52 -6 -43 -13 18 -3 30
-1 43 4 35 5 -8 9 -32 9 -53z m-376 -21 c3 -8 1 -15 -4 -15 -6 0 -10 7 -10 15
0 8 2 15 4 15 2 0 6 -7 10 -15z m158 -7 c-7 -7 -12 -8 -12 -2 0 14 12 26 19
19 2 -3 -1 -11 -7 -17z m421 -90 c2 -7 0 -22 -4 -33 l-9 -20 2 20 c2 11 -1 26
-5 33 -5 6 -4 12 1 12 6 0 12 -6 15 -12z m-216 -150 c-2 -13 -4 -3 -4 22 0 25
2 35 4 23 2 -13 2 -33 0 -45z m-130 30 c-3 -8 -6 -5 -6 6 -1 11 2 17 5 13 3
-3 4 -12 1 -19z m133 -78 c0 -5 -4 -10 -10 -10 -5 0 -10 5 -10 10 0 6 5 10 10
10 6 0 10 -4 10 -10z m-800 -14 c0 -3 -4 -8 -10 -11 -5 -3 -10 -1 -10 4 0 6 5
11 10 11 6 0 10 -2 10 -4z m37 -28 c-3 -8 -6 -5 -6 6 -1 11 2 17 5 13 3 -3 4
-12 1 -19z m764 -15 c-12 -20 -14 -14 -5 12 4 9 9 14 11 11 3 -2 0 -13 -6 -23z
m-151 7 c0 -5 -5 -10 -11 -10 -5 0 -7 5 -4 10 3 6 8 10 11 10 2 0 4 -4 4 -10z
m-650 -15 c0 -8 -2 -15 -4 -15 -2 0 -6 7 -10 15 -3 8 -1 15 4 15 6 0 10 -7 10
-15z m447 -7 c-3 -8 -6 -5 -6 6 -1 11 2 17 5 13 3 -3 4 -12 1 -19z m-421 -56
c-11 -10 -14 3 -7 38 l6 35 3 -33 c2 -19 1 -36 -2 -40z m121 21 c-3 -10 -5 -4
-5 12 0 17 2 24 5 18 2 -7 2 -21 0 -30z m830 15 c-3 -8 -6 -5 -6 6 -1 11 2 17
5 13 3 -3 4 -12 1 -19z m-550 -155 c-3 -10 -5 -4 -5 12 0 17 2 24 5 18 2 -7 2
-21 0 -30z m-500 -5 c-3 -7 -5 -2 -5 12 0 14 2 19 5 13 2 -7 2 -19 0 -25z
m340 10 c-3 -8 -6 -5 -6 6 -1 11 2 17 5 13 3 -3 4 -12 1 -19z m-140 -80 c-3
-8 -6 -5 -6 6 -1 11 2 17 5 13 3 -3 4 -12 1 -19z m-110 -50 c-3 -8 -6 -5 -6 6
-1 11 2 17 5 13 3 -3 4 -12 1 -19z m770 -30 c-3 -8 -6 -5 -6 6 -1 11 2 17 5
13 3 -3 4 -12 1 -19z m-70 -170 c-3 -7 -5 -2 -5 12 0 14 2 19 5 13 2 -7 2 -19
0 -25z m40 10 c-3 -8 -6 -5 -6 6 -1 11 2 17 5 13 3 -3 4 -12 1 -19z m-357 -68
c0 -5 -5 -10 -11 -10 -5 0 -7 5 -4 10 3 6 8 10 11 10 2 0 4 -4 4 -10z m414
-36 c10 -26 7 -34 -14 -34 -13 0 -20 7 -20 18 0 33 23 44 34 16z m-648 -59 c8
-20 -13 -45 -32 -38 -14 5 -19 34 -7 46 11 12 33 7 39 -8z"/>
</g>
</svg>
